<mxfile host="app.diagrams.net" modified="2024-05-25T04:28:46.953Z" agent="Mozilla/5.0 (X11; Linux x86_64; rv:109.0) Gecko/20100101 Firefox/115.0" etag="x6NAkjgYhtQ8u2tqT3uG" version="24.4.6" type="device" pages="4">
  <diagram id="0VLV0tMc2H1Wie2A4KIR" name="Top-level">
    <mxGraphModel dx="1434" dy="668" grid="1" gridSize="10" guides="1" tooltips="1" connect="1" arrows="1" fold="1" page="1" pageScale="1" pageWidth="850" pageHeight="1100" math="0" shadow="0">
      <root>
        <mxCell id="0" />
        <mxCell id="1" parent="0" />
        <mxCell id="DxBFjWHoWwlU8dtJV3xM-35" value="" style="rounded=0;whiteSpace=wrap;html=1;dashed=1;" parent="1" vertex="1">
          <mxGeometry x="25" y="110" width="785" height="690" as="geometry" />
        </mxCell>
        <mxCell id="UOFrsDTStlYBvLq43tFu-3" style="edgeStyle=orthogonalEdgeStyle;rounded=0;orthogonalLoop=1;jettySize=auto;html=1;exitX=0.217;exitY=0.994;exitDx=0;exitDy=0;entryX=0;entryY=0;entryDx=0;entryDy=0;exitPerimeter=0;" parent="1" source="UOFrsDTStlYBvLq43tFu-1" target="UOFrsDTStlYBvLq43tFu-2" edge="1">
          <mxGeometry relative="1" as="geometry">
            <Array as="points">
              <mxPoint x="200" y="289" />
              <mxPoint x="200" y="400" />
              <mxPoint x="230" y="400" />
            </Array>
          </mxGeometry>
        </mxCell>
        <mxCell id="UOFrsDTStlYBvLq43tFu-1" value="Generic Bus (APB?)" style="rounded=0;whiteSpace=wrap;html=1;" parent="1" vertex="1">
          <mxGeometry x="80" y="200" width="690" height="90" as="geometry" />
        </mxCell>
        <mxCell id="J0Dz7A4SuMLwubc2eF71-9" style="edgeStyle=orthogonalEdgeStyle;rounded=0;orthogonalLoop=1;jettySize=auto;html=1;exitX=0.5;exitY=0;exitDx=0;exitDy=0;" parent="1" source="UOFrsDTStlYBvLq43tFu-2" edge="1">
          <mxGeometry relative="1" as="geometry">
            <mxPoint x="435" y="290" as="targetPoint" />
            <Array as="points">
              <mxPoint x="435" y="420" />
              <mxPoint x="435" y="355" />
            </Array>
          </mxGeometry>
        </mxCell>
        <mxCell id="DxBFjWHoWwlU8dtJV3xM-10" style="edgeStyle=orthogonalEdgeStyle;rounded=0;orthogonalLoop=1;jettySize=auto;html=1;exitX=0.5;exitY=1;exitDx=0;exitDy=0;" parent="1" source="UOFrsDTStlYBvLq43tFu-2" edge="1">
          <mxGeometry relative="1" as="geometry">
            <mxPoint x="400" y="830" as="targetPoint" />
          </mxGeometry>
        </mxCell>
        <mxCell id="DxBFjWHoWwlU8dtJV3xM-11" style="edgeStyle=orthogonalEdgeStyle;rounded=0;orthogonalLoop=1;jettySize=auto;html=1;exitX=0.75;exitY=1;exitDx=0;exitDy=0;" parent="1" source="UOFrsDTStlYBvLq43tFu-2" edge="1">
          <mxGeometry relative="1" as="geometry">
            <mxPoint x="485" y="830" as="targetPoint" />
          </mxGeometry>
        </mxCell>
        <mxCell id="DxBFjWHoWwlU8dtJV3xM-12" style="edgeStyle=orthogonalEdgeStyle;rounded=0;orthogonalLoop=1;jettySize=auto;html=1;exitX=1;exitY=1;exitDx=0;exitDy=0;" parent="1" source="UOFrsDTStlYBvLq43tFu-2" edge="1">
          <mxGeometry relative="1" as="geometry">
            <mxPoint x="580" y="830" as="targetPoint" />
            <Array as="points">
              <mxPoint x="580" y="520" />
            </Array>
          </mxGeometry>
        </mxCell>
        <mxCell id="UOFrsDTStlYBvLq43tFu-2" value="Advanced Timer" style="rounded=0;whiteSpace=wrap;html=1;fillColor=#CCFFFF;" parent="1" vertex="1">
          <mxGeometry x="230" y="420" width="340" height="100" as="geometry" />
        </mxCell>
        <mxCell id="UOFrsDTStlYBvLq43tFu-5" value="wen" style="text;html=1;align=center;verticalAlign=middle;whiteSpace=wrap;rounded=0;" parent="1" vertex="1">
          <mxGeometry x="170" y="350" width="30" height="30" as="geometry" />
        </mxCell>
        <mxCell id="UOFrsDTStlYBvLq43tFu-6" value="ren" style="text;html=1;align=center;verticalAlign=middle;whiteSpace=wrap;rounded=0;" parent="1" vertex="1">
          <mxGeometry x="220" y="350" width="30" height="30" as="geometry" />
        </mxCell>
        <mxCell id="UOFrsDTStlYBvLq43tFu-7" style="edgeStyle=orthogonalEdgeStyle;rounded=0;orthogonalLoop=1;jettySize=auto;html=1;exitX=0.25;exitY=1;exitDx=0;exitDy=0;entryX=0.068;entryY=0.003;entryDx=0;entryDy=0;entryPerimeter=0;" parent="1" source="UOFrsDTStlYBvLq43tFu-1" target="UOFrsDTStlYBvLq43tFu-2" edge="1">
          <mxGeometry relative="1" as="geometry" />
        </mxCell>
        <mxCell id="UOFrsDTStlYBvLq43tFu-9" style="edgeStyle=orthogonalEdgeStyle;rounded=0;orthogonalLoop=1;jettySize=auto;html=1;exitX=0.25;exitY=1;exitDx=0;exitDy=0;entryX=0.17;entryY=0.003;entryDx=0;entryDy=0;entryPerimeter=0;" parent="1" source="UOFrsDTStlYBvLq43tFu-1" target="UOFrsDTStlYBvLq43tFu-2" edge="1">
          <mxGeometry relative="1" as="geometry">
            <Array as="points">
              <mxPoint x="288" y="290" />
            </Array>
          </mxGeometry>
        </mxCell>
        <mxCell id="UOFrsDTStlYBvLq43tFu-10" value="addr" style="text;html=1;align=center;verticalAlign=middle;whiteSpace=wrap;rounded=0;" parent="1" vertex="1">
          <mxGeometry x="260" y="350" width="30" height="30" as="geometry" />
        </mxCell>
        <mxCell id="UOFrsDTStlYBvLq43tFu-12" value="" style="endArrow=none;html=1;rounded=0;" parent="1" edge="1">
          <mxGeometry width="50" height="50" relative="1" as="geometry">
            <mxPoint x="280" y="390" as="sourcePoint" />
            <mxPoint x="300" y="380" as="targetPoint" />
          </mxGeometry>
        </mxCell>
        <mxCell id="UOFrsDTStlYBvLq43tFu-13" value="32" style="text;html=1;align=center;verticalAlign=middle;whiteSpace=wrap;rounded=0;" parent="1" vertex="1">
          <mxGeometry x="267" y="377" width="60" height="30" as="geometry" />
        </mxCell>
        <mxCell id="J0Dz7A4SuMLwubc2eF71-1" style="edgeStyle=orthogonalEdgeStyle;rounded=0;orthogonalLoop=1;jettySize=auto;html=1;exitX=0.25;exitY=1;exitDx=0;exitDy=0;entryX=0.327;entryY=-0.011;entryDx=0;entryDy=0;entryPerimeter=0;" parent="1" source="UOFrsDTStlYBvLq43tFu-1" target="UOFrsDTStlYBvLq43tFu-2" edge="1">
          <mxGeometry relative="1" as="geometry">
            <Array as="points">
              <mxPoint x="341" y="290" />
            </Array>
          </mxGeometry>
        </mxCell>
        <mxCell id="J0Dz7A4SuMLwubc2eF71-2" value="wdata" style="text;html=1;align=center;verticalAlign=middle;whiteSpace=wrap;rounded=0;" parent="1" vertex="1">
          <mxGeometry x="310" y="350" width="30" height="30" as="geometry" />
        </mxCell>
        <mxCell id="J0Dz7A4SuMLwubc2eF71-3" value="" style="endArrow=none;html=1;rounded=0;" parent="1" edge="1">
          <mxGeometry width="50" height="50" relative="1" as="geometry">
            <mxPoint x="333" y="390" as="sourcePoint" />
            <mxPoint x="353" y="380" as="targetPoint" />
          </mxGeometry>
        </mxCell>
        <mxCell id="J0Dz7A4SuMLwubc2eF71-4" value="32" style="text;html=1;align=center;verticalAlign=middle;whiteSpace=wrap;rounded=0;" parent="1" vertex="1">
          <mxGeometry x="320" y="377" width="60" height="30" as="geometry" />
        </mxCell>
        <mxCell id="J0Dz7A4SuMLwubc2eF71-5" style="edgeStyle=orthogonalEdgeStyle;rounded=0;orthogonalLoop=1;jettySize=auto;html=1;exitX=0.25;exitY=1;exitDx=0;exitDy=0;entryX=0.48;entryY=-0.011;entryDx=0;entryDy=0;entryPerimeter=0;" parent="1" source="UOFrsDTStlYBvLq43tFu-1" target="UOFrsDTStlYBvLq43tFu-2" edge="1">
          <mxGeometry relative="1" as="geometry">
            <Array as="points">
              <mxPoint x="393" y="290" />
            </Array>
          </mxGeometry>
        </mxCell>
        <mxCell id="J0Dz7A4SuMLwubc2eF71-6" value="strobe" style="text;html=1;align=center;verticalAlign=middle;whiteSpace=wrap;rounded=0;" parent="1" vertex="1">
          <mxGeometry x="360" y="350" width="30" height="30" as="geometry" />
        </mxCell>
        <mxCell id="J0Dz7A4SuMLwubc2eF71-10" value="" style="endArrow=none;html=1;rounded=0;" parent="1" edge="1">
          <mxGeometry width="50" height="50" relative="1" as="geometry">
            <mxPoint x="423" y="390" as="sourcePoint" />
            <mxPoint x="443" y="380" as="targetPoint" />
          </mxGeometry>
        </mxCell>
        <mxCell id="J0Dz7A4SuMLwubc2eF71-11" value="32" style="text;html=1;align=center;verticalAlign=middle;whiteSpace=wrap;rounded=0;" parent="1" vertex="1">
          <mxGeometry x="420" y="377" width="50" height="30" as="geometry" />
        </mxCell>
        <mxCell id="J0Dz7A4SuMLwubc2eF71-12" value="rdata" style="text;html=1;align=center;verticalAlign=middle;whiteSpace=wrap;rounded=0;" parent="1" vertex="1">
          <mxGeometry x="404" y="350" width="30" height="30" as="geometry" />
        </mxCell>
        <mxCell id="J0Dz7A4SuMLwubc2eF71-14" style="edgeStyle=orthogonalEdgeStyle;rounded=0;orthogonalLoop=1;jettySize=auto;html=1;exitX=0.75;exitY=0;exitDx=0;exitDy=0;entryX=0.587;entryY=0.984;entryDx=0;entryDy=0;entryPerimeter=0;" parent="1" source="UOFrsDTStlYBvLq43tFu-2" target="UOFrsDTStlYBvLq43tFu-1" edge="1">
          <mxGeometry relative="1" as="geometry" />
        </mxCell>
        <mxCell id="J0Dz7A4SuMLwubc2eF71-17" value="error" style="text;html=1;align=center;verticalAlign=middle;whiteSpace=wrap;rounded=0;" parent="1" vertex="1">
          <mxGeometry x="455" y="350" width="30" height="30" as="geometry" />
        </mxCell>
        <mxCell id="J0Dz7A4SuMLwubc2eF71-19" value="request_stall" style="text;html=1;align=center;verticalAlign=middle;whiteSpace=wrap;rounded=0;" parent="1" vertex="1">
          <mxGeometry x="500" y="350" width="80" height="30" as="geometry" />
        </mxCell>
        <mxCell id="J0Dz7A4SuMLwubc2eF71-20" style="edgeStyle=orthogonalEdgeStyle;rounded=0;orthogonalLoop=1;jettySize=auto;html=1;exitX=1;exitY=0;exitDx=0;exitDy=0;entryX=0.709;entryY=1.004;entryDx=0;entryDy=0;entryPerimeter=0;" parent="1" source="UOFrsDTStlYBvLq43tFu-2" target="UOFrsDTStlYBvLq43tFu-1" edge="1">
          <mxGeometry relative="1" as="geometry" />
        </mxCell>
        <mxCell id="DxBFjWHoWwlU8dtJV3xM-8" style="edgeStyle=orthogonalEdgeStyle;rounded=0;orthogonalLoop=1;jettySize=auto;html=1;entryX=0;entryY=1;entryDx=0;entryDy=0;" parent="1" target="UOFrsDTStlYBvLq43tFu-2" edge="1">
          <mxGeometry relative="1" as="geometry">
            <mxPoint x="230" y="841" as="sourcePoint" />
          </mxGeometry>
        </mxCell>
        <mxCell id="DxBFjWHoWwlU8dtJV3xM-9" style="edgeStyle=orthogonalEdgeStyle;rounded=0;orthogonalLoop=1;jettySize=auto;html=1;exitX=0.25;exitY=1;exitDx=0;exitDy=0;" parent="1" source="UOFrsDTStlYBvLq43tFu-2" edge="1">
          <mxGeometry relative="1" as="geometry">
            <mxPoint x="299" y="830" as="targetPoint" />
            <Array as="points">
              <mxPoint x="310" y="520" />
              <mxPoint x="310" y="590" />
            </Array>
          </mxGeometry>
        </mxCell>
        <mxCell id="DxBFjWHoWwlU8dtJV3xM-13" value="&lt;div&gt;timer_in&lt;/div&gt;&lt;div&gt;t_in&lt;/div&gt;" style="text;html=1;align=center;verticalAlign=middle;whiteSpace=wrap;rounded=0;" parent="1" vertex="1">
          <mxGeometry x="170" y="620" width="50" height="30" as="geometry" />
        </mxCell>
        <mxCell id="DxBFjWHoWwlU8dtJV3xM-14" value="timer_out&lt;div&gt;t_out&lt;/div&gt;" style="text;html=1;align=center;verticalAlign=middle;whiteSpace=wrap;rounded=0;" parent="1" vertex="1">
          <mxGeometry x="300" y="620" width="60" height="30" as="geometry" />
        </mxCell>
        <mxCell id="DxBFjWHoWwlU8dtJV3xM-15" value="t_irq" style="text;html=1;align=center;verticalAlign=middle;whiteSpace=wrap;rounded=0;" parent="1" vertex="1">
          <mxGeometry x="404" y="620" width="30" height="30" as="geometry" />
        </mxCell>
        <mxCell id="DxBFjWHoWwlU8dtJV3xM-16" value="tc_irq" style="text;html=1;align=center;verticalAlign=middle;whiteSpace=wrap;rounded=0;" parent="1" vertex="1">
          <mxGeometry x="587" y="620" width="30" height="30" as="geometry" />
        </mxCell>
        <mxCell id="DxBFjWHoWwlU8dtJV3xM-17" value="&lt;div&gt;timer_oe&lt;/div&gt;&lt;div&gt;t_oe&lt;/div&gt;" style="text;html=1;align=center;verticalAlign=middle;whiteSpace=wrap;rounded=0;" parent="1" vertex="1">
          <mxGeometry x="500" y="620" width="50" height="30" as="geometry" />
        </mxCell>
        <mxCell id="DxBFjWHoWwlU8dtJV3xM-18" value="" style="group" parent="1" vertex="1" connectable="0">
          <mxGeometry x="383" y="377" width="27" height="30" as="geometry" />
        </mxCell>
        <mxCell id="J0Dz7A4SuMLwubc2eF71-7" value="" style="endArrow=none;html=1;rounded=0;" parent="DxBFjWHoWwlU8dtJV3xM-18" edge="1">
          <mxGeometry width="50" height="50" relative="1" as="geometry">
            <mxPoint y="13" as="sourcePoint" />
            <mxPoint x="20" y="3" as="targetPoint" />
          </mxGeometry>
        </mxCell>
        <mxCell id="J0Dz7A4SuMLwubc2eF71-8" value="4" style="text;html=1;align=center;verticalAlign=middle;whiteSpace=wrap;rounded=0;" parent="DxBFjWHoWwlU8dtJV3xM-18" vertex="1">
          <mxGeometry x="7" width="20" height="30" as="geometry" />
        </mxCell>
        <mxCell id="DxBFjWHoWwlU8dtJV3xM-19" value="" style="group" parent="1" vertex="1" connectable="0">
          <mxGeometry x="220" y="550" width="27" height="30" as="geometry" />
        </mxCell>
        <mxCell id="DxBFjWHoWwlU8dtJV3xM-20" value="" style="endArrow=none;html=1;rounded=0;" parent="DxBFjWHoWwlU8dtJV3xM-19" edge="1">
          <mxGeometry width="50" height="50" relative="1" as="geometry">
            <mxPoint y="13" as="sourcePoint" />
            <mxPoint x="20" y="3" as="targetPoint" />
          </mxGeometry>
        </mxCell>
        <mxCell id="DxBFjWHoWwlU8dtJV3xM-21" value="8" style="text;html=1;align=center;verticalAlign=middle;whiteSpace=wrap;rounded=0;" parent="DxBFjWHoWwlU8dtJV3xM-19" vertex="1">
          <mxGeometry x="7" width="20" height="30" as="geometry" />
        </mxCell>
        <mxCell id="DxBFjWHoWwlU8dtJV3xM-22" value="" style="group" parent="1" vertex="1" connectable="0">
          <mxGeometry x="290" y="600" width="27" height="30" as="geometry" />
        </mxCell>
        <mxCell id="DxBFjWHoWwlU8dtJV3xM-23" value="" style="endArrow=none;html=1;rounded=0;" parent="DxBFjWHoWwlU8dtJV3xM-22" edge="1">
          <mxGeometry width="50" height="50" relative="1" as="geometry">
            <mxPoint y="13" as="sourcePoint" />
            <mxPoint x="20" y="3" as="targetPoint" />
          </mxGeometry>
        </mxCell>
        <mxCell id="DxBFjWHoWwlU8dtJV3xM-24" value="8" style="text;html=1;align=center;verticalAlign=middle;whiteSpace=wrap;rounded=0;" parent="DxBFjWHoWwlU8dtJV3xM-22" vertex="1">
          <mxGeometry x="7" width="20" height="30" as="geometry" />
        </mxCell>
        <mxCell id="DxBFjWHoWwlU8dtJV3xM-25" value="" style="group" parent="1" vertex="1" connectable="0">
          <mxGeometry x="390" y="590" width="27" height="30" as="geometry" />
        </mxCell>
        <mxCell id="DxBFjWHoWwlU8dtJV3xM-26" value="" style="endArrow=none;html=1;rounded=0;" parent="DxBFjWHoWwlU8dtJV3xM-25" edge="1">
          <mxGeometry width="50" height="50" relative="1" as="geometry">
            <mxPoint y="13" as="sourcePoint" />
            <mxPoint x="20" y="3" as="targetPoint" />
          </mxGeometry>
        </mxCell>
        <mxCell id="DxBFjWHoWwlU8dtJV3xM-27" value="8" style="text;html=1;align=center;verticalAlign=middle;whiteSpace=wrap;rounded=0;" parent="DxBFjWHoWwlU8dtJV3xM-25" vertex="1">
          <mxGeometry x="7" width="20" height="30" as="geometry" />
        </mxCell>
        <mxCell id="DxBFjWHoWwlU8dtJV3xM-28" value="" style="group" parent="1" vertex="1" connectable="0">
          <mxGeometry x="473" y="600" width="27" height="30" as="geometry" />
        </mxCell>
        <mxCell id="DxBFjWHoWwlU8dtJV3xM-29" value="" style="endArrow=none;html=1;rounded=0;" parent="DxBFjWHoWwlU8dtJV3xM-28" edge="1">
          <mxGeometry width="50" height="50" relative="1" as="geometry">
            <mxPoint y="13" as="sourcePoint" />
            <mxPoint x="20" y="3" as="targetPoint" />
          </mxGeometry>
        </mxCell>
        <mxCell id="DxBFjWHoWwlU8dtJV3xM-30" value="8" style="text;html=1;align=center;verticalAlign=middle;whiteSpace=wrap;rounded=0;" parent="DxBFjWHoWwlU8dtJV3xM-28" vertex="1">
          <mxGeometry x="7" width="20" height="30" as="geometry" />
        </mxCell>
        <mxCell id="DxBFjWHoWwlU8dtJV3xM-36" value="GPIO PINS" style="text;html=1;align=center;verticalAlign=middle;whiteSpace=wrap;rounded=0;" parent="1" vertex="1">
          <mxGeometry x="200" y="850" width="60" height="30" as="geometry" />
        </mxCell>
        <mxCell id="DxBFjWHoWwlU8dtJV3xM-37" value="GPIO PINS" style="text;html=1;align=center;verticalAlign=middle;whiteSpace=wrap;rounded=0;" parent="1" vertex="1">
          <mxGeometry x="267" y="850" width="60" height="30" as="geometry" />
        </mxCell>
        <mxCell id="DxBFjWHoWwlU8dtJV3xM-39" value="GPIO PINS" style="text;html=1;align=center;verticalAlign=middle;whiteSpace=wrap;rounded=0;" parent="1" vertex="1">
          <mxGeometry x="456.5" y="850" width="60" height="30" as="geometry" />
        </mxCell>
        <mxCell id="DxBFjWHoWwlU8dtJV3xM-40" value="INTERRUPTS" style="text;html=1;align=center;verticalAlign=middle;whiteSpace=wrap;rounded=0;" parent="1" vertex="1">
          <mxGeometry x="370" y="850" width="60" height="30" as="geometry" />
        </mxCell>
        <mxCell id="DxBFjWHoWwlU8dtJV3xM-41" value="INTERRUPT" style="text;html=1;align=center;verticalAlign=middle;whiteSpace=wrap;rounded=0;" parent="1" vertex="1">
          <mxGeometry x="550" y="850" width="60" height="30" as="geometry" />
        </mxCell>
        <mxCell id="DxBFjWHoWwlU8dtJV3xM-43" value="&lt;font style=&quot;font-size: 27px;&quot;&gt;Top-level&lt;/font&gt;" style="text;html=1;align=center;verticalAlign=middle;whiteSpace=wrap;rounded=0;" parent="1" vertex="1">
          <mxGeometry x="30" y="120" width="120" height="30" as="geometry" />
        </mxCell>
      </root>
    </mxGraphModel>
  </diagram>
  <diagram id="U6KI4l30yy0JX19nmwuE" name="Timer module">
    <mxGraphModel dx="683" dy="369" grid="1" gridSize="10" guides="1" tooltips="1" connect="1" arrows="1" fold="1" page="1" pageScale="1" pageWidth="850" pageHeight="1100" math="0" shadow="0">
      <root>
        <mxCell id="0" />
        <mxCell id="1" parent="0" />
        <mxCell id="4LY0eMF0q3EMJJGkq3yK-50" value="" style="verticalLabelPosition=bottom;verticalAlign=top;html=1;shape=mxgraph.basic.rect;fillColor2=none;strokeWidth=1;size=20;indent=5;dashed=1;shadow=1;gradientColor=none;fillColor=#CCFFFF;" parent="1" vertex="1">
          <mxGeometry x="94" y="120" width="626" height="620" as="geometry" />
        </mxCell>
        <mxCell id="4LY0eMF0q3EMJJGkq3yK-169" style="edgeStyle=orthogonalEdgeStyle;rounded=0;orthogonalLoop=1;jettySize=auto;html=1;exitX=1;exitY=0.5;exitDx=0;exitDy=0;entryX=0;entryY=0.5;entryDx=0;entryDy=0;strokeColor=#FF0000;" parent="1" source="F1QgXw5RZE7JSTDuxs1F-3" target="MMl0id7Liuc3tZu3IlEb-5" edge="1">
          <mxGeometry relative="1" as="geometry">
            <mxPoint x="70" y="380" as="targetPoint" />
            <Array as="points">
              <mxPoint x="110" y="328" />
              <mxPoint x="110" y="180" />
              <mxPoint x="470" y="180" />
              <mxPoint x="470" y="183" />
            </Array>
          </mxGeometry>
        </mxCell>
        <mxCell id="urW1TpdPmH8jiGXUPBKo-1" style="edgeStyle=orthogonalEdgeStyle;rounded=0;orthogonalLoop=1;jettySize=auto;html=1;exitX=1;exitY=0.5;exitDx=0;exitDy=0;entryX=0;entryY=0;entryDx=0;entryDy=0;strokeColor=#FF0000;" parent="1" source="F1QgXw5RZE7JSTDuxs1F-3" target="MMl0id7Liuc3tZu3IlEb-22" edge="1">
          <mxGeometry relative="1" as="geometry">
            <Array as="points">
              <mxPoint x="110" y="328" />
              <mxPoint x="110" y="200" />
            </Array>
          </mxGeometry>
        </mxCell>
        <mxCell id="MMl0id7Liuc3tZu3IlEb-20" style="edgeStyle=orthogonalEdgeStyle;rounded=0;orthogonalLoop=1;jettySize=auto;html=1;exitX=1;exitY=0.5;exitDx=0;exitDy=0;strokeColor=#7F00FF;" parent="1" source="F1QgXw5RZE7JSTDuxs1F-6" target="4LY0eMF0q3EMJJGkq3yK-16" edge="1">
          <mxGeometry relative="1" as="geometry" />
        </mxCell>
        <mxCell id="MMl0id7Liuc3tZu3IlEb-19" style="edgeStyle=orthogonalEdgeStyle;rounded=0;orthogonalLoop=1;jettySize=auto;html=1;exitX=1;exitY=0.5;exitDx=0;exitDy=0;strokeColor=#7F00FF;" parent="1" source="F1QgXw5RZE7JSTDuxs1F-6" target="4LY0eMF0q3EMJJGkq3yK-12" edge="1">
          <mxGeometry relative="1" as="geometry" />
        </mxCell>
        <mxCell id="MMl0id7Liuc3tZu3IlEb-18" style="edgeStyle=orthogonalEdgeStyle;rounded=0;orthogonalLoop=1;jettySize=auto;html=1;exitX=1;exitY=0.5;exitDx=0;exitDy=0;entryX=0.5;entryY=0;entryDx=0;entryDy=0;strokeColor=#7F00FF;" parent="1" source="F1QgXw5RZE7JSTDuxs1F-6" target="4LY0eMF0q3EMJJGkq3yK-8" edge="1">
          <mxGeometry relative="1" as="geometry" />
        </mxCell>
        <mxCell id="MMl0id7Liuc3tZu3IlEb-54" style="edgeStyle=orthogonalEdgeStyle;rounded=0;orthogonalLoop=1;jettySize=auto;html=1;exitX=1;exitY=0.5;exitDx=0;exitDy=0;entryX=0;entryY=0.25;entryDx=0;entryDy=0;strokeColor=#7F00FF;" parent="1" source="F1QgXw5RZE7JSTDuxs1F-6" target="MMl0id7Liuc3tZu3IlEb-22" edge="1">
          <mxGeometry relative="1" as="geometry" />
        </mxCell>
        <mxCell id="xY2gIMg-fqmMJkJHXbPW-7" style="edgeStyle=orthogonalEdgeStyle;rounded=0;orthogonalLoop=1;jettySize=auto;html=1;exitX=1;exitY=0.5;exitDx=0;exitDy=0;entryX=0;entryY=0.75;entryDx=0;entryDy=0;strokeColor=#FF8000;" parent="1" source="xY2gIMg-fqmMJkJHXbPW-1" target="4LY0eMF0q3EMJJGkq3yK-12" edge="1">
          <mxGeometry relative="1" as="geometry">
            <Array as="points">
              <mxPoint x="230" y="545" />
              <mxPoint x="230" y="562" />
            </Array>
          </mxGeometry>
        </mxCell>
        <mxCell id="xY2gIMg-fqmMJkJHXbPW-8" style="edgeStyle=orthogonalEdgeStyle;rounded=0;orthogonalLoop=1;jettySize=auto;html=1;exitX=1;exitY=0.5;exitDx=0;exitDy=0;entryX=0;entryY=0.66;entryDx=0;entryDy=0;entryPerimeter=0;strokeColor=#FF8000;" parent="1" source="xY2gIMg-fqmMJkJHXbPW-1" target="4LY0eMF0q3EMJJGkq3yK-16" edge="1">
          <mxGeometry relative="1" as="geometry">
            <Array as="points">
              <mxPoint x="230" y="545" />
              <mxPoint x="230" y="576" />
            </Array>
          </mxGeometry>
        </mxCell>
        <mxCell id="4LY0eMF0q3EMJJGkq3yK-140" value="" style="group" parent="1" vertex="1" connectable="0">
          <mxGeometry x="283" y="495" width="130" height="127.8576051779936" as="geometry" />
        </mxCell>
        <mxCell id="4LY0eMF0q3EMJJGkq3yK-16" value="capture compare channel" style="rounded=0;whiteSpace=wrap;html=1;container=0;fillColor=#FFCCCC;" parent="4LY0eMF0q3EMJJGkq3yK-140" vertex="1">
          <mxGeometry width="130.00000000000003" height="122.78317152103557" as="geometry" />
        </mxCell>
        <mxCell id="4LY0eMF0q3EMJJGkq3yK-17" value="" style="triangle;whiteSpace=wrap;html=1;container=0;" parent="4LY0eMF0q3EMJJGkq3yK-140" vertex="1">
          <mxGeometry y="103.75404530744333" width="11.206896551724139" height="18.122977346278315" as="geometry" />
        </mxCell>
        <mxCell id="4LY0eMF0q3EMJJGkq3yK-18" value="" style="ellipse;whiteSpace=wrap;html=1;aspect=fixed;container=0;" parent="4LY0eMF0q3EMJJGkq3yK-140" vertex="1">
          <mxGeometry x="11.206896551724128" y="121.87702265372172" width="5.980582524271844" height="5.980582524271844" as="geometry" />
        </mxCell>
        <mxCell id="4LY0eMF0q3EMJJGkq3yK-141" value="&lt;font size=&quot;1&quot;&gt;&lt;b style=&quot;font-size: 14px;&quot;&gt;. . .&lt;/b&gt;&lt;/font&gt;" style="text;html=1;align=center;verticalAlign=middle;whiteSpace=wrap;rounded=0;rotation=60;" parent="4LY0eMF0q3EMJJGkq3yK-140" vertex="1">
          <mxGeometry x="104" y="96.99999999999997" width="25" height="16.1" as="geometry" />
        </mxCell>
        <mxCell id="4LY0eMF0q3EMJJGkq3yK-12" value="capture compare channel" style="rounded=0;whiteSpace=wrap;html=1;container=0;fillColor=#FFCCCC;" parent="1" vertex="1">
          <mxGeometry x="260" y="470" width="130.00000000000003" height="122.78317152103557" as="geometry" />
        </mxCell>
        <mxCell id="4LY0eMF0q3EMJJGkq3yK-47" style="edgeStyle=orthogonalEdgeStyle;rounded=0;orthogonalLoop=1;jettySize=auto;html=1;exitX=1;exitY=1;exitDx=0;exitDy=0;entryX=0;entryY=0.5;entryDx=0;entryDy=0;jumpStyle=none;jumpSize=16;" parent="1" source="4LY0eMF0q3EMJJGkq3yK-1" target="aOVrWrjgvoJSjb1ijP1g-3" edge="1">
          <mxGeometry relative="1" as="geometry">
            <Array as="points">
              <mxPoint x="460" y="373" />
              <mxPoint x="460" y="425" />
            </Array>
          </mxGeometry>
        </mxCell>
        <mxCell id="4LY0eMF0q3EMJJGkq3yK-161" style="edgeStyle=orthogonalEdgeStyle;rounded=0;orthogonalLoop=1;jettySize=auto;html=1;exitX=1;exitY=1;exitDx=0;exitDy=0;entryX=0;entryY=0.5;entryDx=0;entryDy=0;" parent="1" source="4LY0eMF0q3EMJJGkq3yK-12" target="aOVrWrjgvoJSjb1ijP1g-2" edge="1">
          <mxGeometry relative="1" as="geometry">
            <mxPoint x="652.5" y="674.47" as="targetPoint" />
            <Array as="points">
              <mxPoint x="480" y="593" />
              <mxPoint x="480" y="675" />
            </Array>
          </mxGeometry>
        </mxCell>
        <mxCell id="4LY0eMF0q3EMJJGkq3yK-35" style="edgeStyle=orthogonalEdgeStyle;rounded=0;orthogonalLoop=1;jettySize=auto;html=1;exitX=1;exitY=0.5;exitDx=0;exitDy=0;entryX=0;entryY=0.5;entryDx=0;entryDy=0;" parent="1" source="4LY0eMF0q3EMJJGkq3yK-16" target="liKidStu4S2gYdici5ND-2" edge="1">
          <mxGeometry relative="1" as="geometry">
            <mxPoint x="652.1100000000001" y="542.45" as="targetPoint" />
            <Array as="points">
              <mxPoint x="413" y="541" />
              <mxPoint x="560" y="541" />
              <mxPoint x="560" y="543" />
              <mxPoint x="745" y="543" />
            </Array>
          </mxGeometry>
        </mxCell>
        <mxCell id="4LY0eMF0q3EMJJGkq3yK-42" style="edgeStyle=orthogonalEdgeStyle;rounded=0;orthogonalLoop=1;jettySize=auto;html=1;exitX=1;exitY=0.75;exitDx=0;exitDy=0;entryX=0;entryY=0.5;entryDx=0;entryDy=0;" parent="1" source="4LY0eMF0q3EMJJGkq3yK-16" target="aOVrWrjgvoJSjb1ijP1g-1" edge="1">
          <mxGeometry relative="1" as="geometry">
            <mxPoint x="652.77" y="623.5950000000003" as="targetPoint" />
            <Array as="points">
              <mxPoint x="413" y="572" />
              <mxPoint x="510" y="572" />
              <mxPoint x="510" y="624" />
              <mxPoint x="745" y="624" />
            </Array>
          </mxGeometry>
        </mxCell>
        <mxCell id="4LY0eMF0q3EMJJGkq3yK-34" style="edgeStyle=orthogonalEdgeStyle;rounded=0;orthogonalLoop=1;jettySize=auto;html=1;exitX=1;exitY=0.5;exitDx=0;exitDy=0;entryX=0;entryY=0.5;entryDx=0;entryDy=0;" parent="1" source="4LY0eMF0q3EMJJGkq3yK-12" target="liKidStu4S2gYdici5ND-2" edge="1">
          <mxGeometry relative="1" as="geometry">
            <mxPoint x="652.5" y="515" as="targetPoint" />
            <Array as="points">
              <mxPoint x="560" y="531" />
              <mxPoint x="570" y="531" />
              <mxPoint x="570" y="515" />
            </Array>
          </mxGeometry>
        </mxCell>
        <mxCell id="4LY0eMF0q3EMJJGkq3yK-41" style="edgeStyle=orthogonalEdgeStyle;rounded=0;orthogonalLoop=1;jettySize=auto;html=1;exitX=1;exitY=0.75;exitDx=0;exitDy=0;entryX=0;entryY=0.5;entryDx=0;entryDy=0;" parent="1" source="4LY0eMF0q3EMJJGkq3yK-12" target="aOVrWrjgvoJSjb1ijP1g-1" edge="1">
          <mxGeometry relative="1" as="geometry">
            <mxPoint x="652.5" y="594.87" as="targetPoint" />
            <Array as="points">
              <mxPoint x="520" y="562" />
              <mxPoint x="520" y="595" />
            </Array>
          </mxGeometry>
        </mxCell>
        <mxCell id="4LY0eMF0q3EMJJGkq3yK-67" style="edgeStyle=orthogonalEdgeStyle;rounded=0;orthogonalLoop=1;jettySize=auto;html=1;exitX=1;exitY=0.5;exitDx=0;exitDy=0;entryX=0;entryY=0;entryDx=0;entryDy=0;strokeColor=#FFFF00;" parent="1" source="F1QgXw5RZE7JSTDuxs1F-1" target="4LY0eMF0q3EMJJGkq3yK-12" edge="1">
          <mxGeometry relative="1" as="geometry" />
        </mxCell>
        <mxCell id="4LY0eMF0q3EMJJGkq3yK-68" style="edgeStyle=orthogonalEdgeStyle;rounded=0;orthogonalLoop=1;jettySize=auto;html=1;exitX=1;exitY=0.5;exitDx=0;exitDy=0;entryX=0;entryY=0;entryDx=0;entryDy=0;strokeColor=#FFFF00;" parent="1" source="F1QgXw5RZE7JSTDuxs1F-1" target="4LY0eMF0q3EMJJGkq3yK-16" edge="1">
          <mxGeometry relative="1" as="geometry" />
        </mxCell>
        <mxCell id="F1QgXw5RZE7JSTDuxs1F-1" value="wen" style="text;html=1;align=center;verticalAlign=middle;whiteSpace=wrap;rounded=0;" parent="1" vertex="1">
          <mxGeometry x="10" y="420" width="30" height="30" as="geometry" />
        </mxCell>
        <mxCell id="F1QgXw5RZE7JSTDuxs1F-2" value="ren" style="text;html=1;align=center;verticalAlign=middle;whiteSpace=wrap;rounded=0;" parent="1" vertex="1">
          <mxGeometry x="20" y="200" width="30" height="30" as="geometry" />
        </mxCell>
        <mxCell id="F1QgXw5RZE7JSTDuxs1F-3" value="addr" style="text;html=1;align=center;verticalAlign=middle;whiteSpace=wrap;rounded=0;" parent="1" vertex="1">
          <mxGeometry x="10" y="313" width="30" height="30" as="geometry" />
        </mxCell>
        <mxCell id="F1QgXw5RZE7JSTDuxs1F-6" value="wdata" style="text;html=1;align=center;verticalAlign=middle;whiteSpace=wrap;rounded=0;" parent="1" vertex="1">
          <mxGeometry x="10" y="380" width="30" height="30" as="geometry" />
        </mxCell>
        <mxCell id="F1QgXw5RZE7JSTDuxs1F-9" value="strobe" style="text;html=1;align=center;verticalAlign=middle;whiteSpace=wrap;rounded=0;" parent="1" vertex="1">
          <mxGeometry x="12" y="256.15" width="30" height="30" as="geometry" />
        </mxCell>
        <mxCell id="MMl0id7Liuc3tZu3IlEb-1" style="edgeStyle=orthogonalEdgeStyle;rounded=0;orthogonalLoop=1;jettySize=auto;html=1;exitX=1;exitY=0.5;exitDx=0;exitDy=0;" parent="1" source="F1QgXw5RZE7JSTDuxs1F-14" edge="1">
          <mxGeometry relative="1" as="geometry">
            <mxPoint x="840" y="289.6363636363635" as="targetPoint" />
          </mxGeometry>
        </mxCell>
        <mxCell id="F1QgXw5RZE7JSTDuxs1F-14" value="rdata" style="text;html=1;align=center;verticalAlign=middle;whiteSpace=wrap;rounded=0;" parent="1" vertex="1">
          <mxGeometry x="776" y="274.7" width="30" height="30" as="geometry" />
        </mxCell>
        <mxCell id="MMl0id7Liuc3tZu3IlEb-17" style="edgeStyle=orthogonalEdgeStyle;rounded=0;orthogonalLoop=1;jettySize=auto;html=1;exitX=1;exitY=0.5;exitDx=0;exitDy=0;" parent="1" source="F1QgXw5RZE7JSTDuxs1F-15" edge="1">
          <mxGeometry relative="1" as="geometry">
            <mxPoint x="820.0000000000002" y="784.75" as="targetPoint" />
          </mxGeometry>
        </mxCell>
        <mxCell id="F1QgXw5RZE7JSTDuxs1F-15" value="error" style="text;html=1;align=center;verticalAlign=middle;whiteSpace=wrap;rounded=0;" parent="1" vertex="1">
          <mxGeometry x="770" y="770" width="30" height="30" as="geometry" />
        </mxCell>
        <mxCell id="F1QgXw5RZE7JSTDuxs1F-16" value="request_stall" style="text;html=1;align=center;verticalAlign=middle;whiteSpace=wrap;rounded=0;" parent="1" vertex="1">
          <mxGeometry x="746" y="184.7" width="80" height="30" as="geometry" />
        </mxCell>
        <mxCell id="4LY0eMF0q3EMJJGkq3yK-22" style="edgeStyle=orthogonalEdgeStyle;rounded=0;orthogonalLoop=1;jettySize=auto;html=1;exitX=1;exitY=0.5;exitDx=0;exitDy=0;entryX=0;entryY=0.25;entryDx=0;entryDy=0;" parent="1" source="liKidStu4S2gYdici5ND-1" target="4LY0eMF0q3EMJJGkq3yK-8" edge="1">
          <mxGeometry relative="1" as="geometry" />
        </mxCell>
        <mxCell id="4LY0eMF0q3EMJJGkq3yK-24" style="edgeStyle=orthogonalEdgeStyle;rounded=0;orthogonalLoop=1;jettySize=auto;html=1;exitX=1;exitY=0.5;exitDx=0;exitDy=0;entryX=0;entryY=0.25;entryDx=0;entryDy=0;" parent="1" source="liKidStu4S2gYdici5ND-1" target="4LY0eMF0q3EMJJGkq3yK-12" edge="1">
          <mxGeometry relative="1" as="geometry">
            <mxPoint x="210" y="530" as="targetPoint" />
          </mxGeometry>
        </mxCell>
        <mxCell id="4LY0eMF0q3EMJJGkq3yK-25" style="edgeStyle=orthogonalEdgeStyle;rounded=0;orthogonalLoop=1;jettySize=auto;html=1;exitX=1;exitY=0.5;exitDx=0;exitDy=0;entryX=0;entryY=0.25;entryDx=0;entryDy=0;" parent="1" source="liKidStu4S2gYdici5ND-1" target="4LY0eMF0q3EMJJGkq3yK-16" edge="1">
          <mxGeometry relative="1" as="geometry">
            <Array as="points">
              <mxPoint x="270" y="515" />
              <mxPoint x="270" y="526" />
            </Array>
          </mxGeometry>
        </mxCell>
        <mxCell id="liKidStu4S2gYdici5ND-1" value="t_in" style="text;html=1;align=center;verticalAlign=middle;whiteSpace=wrap;rounded=0;" parent="1" vertex="1">
          <mxGeometry x="10" y="500" width="30" height="30" as="geometry" />
        </mxCell>
        <mxCell id="4LY0eMF0q3EMJJGkq3yK-29" style="edgeStyle=orthogonalEdgeStyle;rounded=0;orthogonalLoop=1;jettySize=auto;html=1;exitX=1;exitY=0.5;exitDx=0;exitDy=0;" parent="1" source="liKidStu4S2gYdici5ND-2" edge="1">
          <mxGeometry relative="1" as="geometry">
            <mxPoint x="820" y="514" as="targetPoint" />
          </mxGeometry>
        </mxCell>
        <mxCell id="liKidStu4S2gYdici5ND-2" value="t_out" style="text;html=1;align=center;verticalAlign=middle;whiteSpace=wrap;rounded=0;" parent="1" vertex="1">
          <mxGeometry x="745" y="499.47" width="30" height="30" as="geometry" />
        </mxCell>
        <mxCell id="4LY0eMF0q3EMJJGkq3yK-157" style="edgeStyle=orthogonalEdgeStyle;rounded=0;orthogonalLoop=1;jettySize=auto;html=1;exitX=1;exitY=0.5;exitDx=0;exitDy=0;" parent="1" source="aOVrWrjgvoJSjb1ijP1g-1" edge="1">
          <mxGeometry relative="1" as="geometry">
            <mxPoint x="820" y="595" as="targetPoint" />
          </mxGeometry>
        </mxCell>
        <mxCell id="aOVrWrjgvoJSjb1ijP1g-1" value="t_irq" style="text;html=1;align=center;verticalAlign=middle;whiteSpace=wrap;rounded=0;" parent="1" vertex="1">
          <mxGeometry x="745" y="579.87" width="30" height="30" as="geometry" />
        </mxCell>
        <mxCell id="4LY0eMF0q3EMJJGkq3yK-168" style="edgeStyle=orthogonalEdgeStyle;rounded=0;orthogonalLoop=1;jettySize=auto;html=1;exitX=1;exitY=0.5;exitDx=0;exitDy=0;" parent="1" source="aOVrWrjgvoJSjb1ijP1g-2" edge="1">
          <mxGeometry relative="1" as="geometry">
            <mxPoint x="820" y="675" as="targetPoint" />
          </mxGeometry>
        </mxCell>
        <mxCell id="aOVrWrjgvoJSjb1ijP1g-2" value="t_oe" style="text;html=1;align=center;verticalAlign=middle;whiteSpace=wrap;rounded=0;" parent="1" vertex="1">
          <mxGeometry x="745" y="659.47" width="30" height="30" as="geometry" />
        </mxCell>
        <mxCell id="4LY0eMF0q3EMJJGkq3yK-48" style="edgeStyle=orthogonalEdgeStyle;rounded=0;orthogonalLoop=1;jettySize=auto;html=1;exitX=1;exitY=0.5;exitDx=0;exitDy=0;" parent="1" source="aOVrWrjgvoJSjb1ijP1g-3" edge="1">
          <mxGeometry relative="1" as="geometry">
            <mxPoint x="820" y="425" as="targetPoint" />
          </mxGeometry>
        </mxCell>
        <mxCell id="aOVrWrjgvoJSjb1ijP1g-3" value="tc_irq" style="text;html=1;align=center;verticalAlign=middle;whiteSpace=wrap;rounded=0;" parent="1" vertex="1">
          <mxGeometry x="750" y="410" width="30" height="30" as="geometry" />
        </mxCell>
        <mxCell id="4LY0eMF0q3EMJJGkq3yK-13" value="" style="triangle;whiteSpace=wrap;html=1;container=0;" parent="1" vertex="1">
          <mxGeometry x="260" y="573.7540453074433" width="11.206896551724139" height="18.122977346278315" as="geometry" />
        </mxCell>
        <mxCell id="4LY0eMF0q3EMJJGkq3yK-14" value="" style="ellipse;whiteSpace=wrap;html=1;aspect=fixed;container=0;" parent="1" vertex="1">
          <mxGeometry x="271.2068965517241" y="591.8770226537217" width="5.980582524271844" height="5.980582524271844" as="geometry" />
        </mxCell>
        <mxCell id="4LY0eMF0q3EMJJGkq3yK-33" style="edgeStyle=orthogonalEdgeStyle;rounded=0;orthogonalLoop=1;jettySize=auto;html=1;exitX=1;exitY=0.5;exitDx=0;exitDy=0;entryX=0;entryY=0.5;entryDx=0;entryDy=0;" parent="1" source="4LY0eMF0q3EMJJGkq3yK-8" target="liKidStu4S2gYdici5ND-2" edge="1">
          <mxGeometry relative="1" as="geometry">
            <mxPoint x="652.5" y="496.25" as="targetPoint" />
            <Array as="points">
              <mxPoint x="560" y="521" />
              <mxPoint x="560" y="496" />
              <mxPoint x="745" y="496" />
            </Array>
          </mxGeometry>
        </mxCell>
        <mxCell id="4LY0eMF0q3EMJJGkq3yK-40" style="edgeStyle=orthogonalEdgeStyle;rounded=0;orthogonalLoop=1;jettySize=auto;html=1;exitX=1;exitY=0.75;exitDx=0;exitDy=0;entryX=0;entryY=0.5;entryDx=0;entryDy=0;" parent="1" source="4LY0eMF0q3EMJJGkq3yK-8" target="aOVrWrjgvoJSjb1ijP1g-1" edge="1">
          <mxGeometry relative="1" as="geometry">
            <mxPoint x="652.4999999999998" y="576.12" as="targetPoint" />
            <Array as="points">
              <mxPoint x="530" y="552" />
              <mxPoint x="530" y="576" />
              <mxPoint x="745" y="576" />
            </Array>
          </mxGeometry>
        </mxCell>
        <mxCell id="4LY0eMF0q3EMJJGkq3yK-108" style="edgeStyle=orthogonalEdgeStyle;rounded=0;orthogonalLoop=1;jettySize=auto;html=1;exitX=1;exitY=0.25;exitDx=0;exitDy=0;entryX=0.683;entryY=0.996;entryDx=0;entryDy=0;jumpStyle=arc;jumpSize=7;entryPerimeter=0;strokeColor=#FF00FF;" parent="1" source="4LY0eMF0q3EMJJGkq3yK-8" target="4LY0eMF0q3EMJJGkq3yK-75" edge="1">
          <mxGeometry relative="1" as="geometry">
            <Array as="points">
              <mxPoint x="510" y="491" />
              <mxPoint x="510" y="345" />
            </Array>
          </mxGeometry>
        </mxCell>
        <mxCell id="4LY0eMF0q3EMJJGkq3yK-160" style="edgeStyle=orthogonalEdgeStyle;rounded=0;orthogonalLoop=1;jettySize=auto;html=1;exitX=1;exitY=1;exitDx=0;exitDy=0;entryX=0;entryY=0.5;entryDx=0;entryDy=0;" parent="1" source="4LY0eMF0q3EMJJGkq3yK-8" target="aOVrWrjgvoJSjb1ijP1g-2" edge="1">
          <mxGeometry relative="1" as="geometry">
            <mxPoint x="652.5" y="655.72" as="targetPoint" />
            <Array as="points">
              <mxPoint x="490" y="583" />
              <mxPoint x="490" y="656" />
              <mxPoint x="745" y="656" />
            </Array>
          </mxGeometry>
        </mxCell>
        <mxCell id="4LY0eMF0q3EMJJGkq3yK-8" value="capture compare channel (8x)" style="rounded=0;whiteSpace=wrap;html=1;container=0;fillColor=#FFCCCC;" parent="1" vertex="1">
          <mxGeometry x="250" y="460" width="130.00000000000003" height="122.78317152103557" as="geometry" />
        </mxCell>
        <mxCell id="4LY0eMF0q3EMJJGkq3yK-9" value="" style="triangle;whiteSpace=wrap;html=1;container=0;" parent="1" vertex="1">
          <mxGeometry x="250" y="563.7540453074433" width="11.206896551724139" height="18.122977346278315" as="geometry" />
        </mxCell>
        <mxCell id="4LY0eMF0q3EMJJGkq3yK-10" value="" style="ellipse;whiteSpace=wrap;html=1;aspect=fixed;container=0;" parent="1" vertex="1">
          <mxGeometry x="261.2068965517241" y="581.8770226537217" width="5.980582524271844" height="5.980582524271844" as="geometry" />
        </mxCell>
        <mxCell id="4LY0eMF0q3EMJJGkq3yK-23" value="" style="group" parent="1" vertex="1" connectable="0">
          <mxGeometry x="64" y="504.69" width="30" height="31.69999999999999" as="geometry" />
        </mxCell>
        <mxCell id="4LY0eMF0q3EMJJGkq3yK-20" value="8" style="text;html=1;align=center;verticalAlign=middle;whiteSpace=wrap;rounded=0;" parent="4LY0eMF0q3EMJJGkq3yK-23" vertex="1">
          <mxGeometry y="1.6999999999999886" width="30" height="30" as="geometry" />
        </mxCell>
        <mxCell id="4LY0eMF0q3EMJJGkq3yK-19" value="" style="endArrow=none;html=1;rounded=0;" parent="4LY0eMF0q3EMJJGkq3yK-23" edge="1">
          <mxGeometry width="50" height="50" relative="1" as="geometry">
            <mxPoint x="6" y="20.609999999999957" as="sourcePoint" />
            <mxPoint x="16" as="targetPoint" />
          </mxGeometry>
        </mxCell>
        <mxCell id="4LY0eMF0q3EMJJGkq3yK-30" value="" style="group" parent="1" vertex="1" connectable="0">
          <mxGeometry x="780" y="504.4700000000001" width="30" height="31.69999999999999" as="geometry" />
        </mxCell>
        <mxCell id="4LY0eMF0q3EMJJGkq3yK-31" value="8" style="text;html=1;align=center;verticalAlign=middle;whiteSpace=wrap;rounded=0;" parent="4LY0eMF0q3EMJJGkq3yK-30" vertex="1">
          <mxGeometry y="1.6999999999999886" width="30" height="30" as="geometry" />
        </mxCell>
        <mxCell id="4LY0eMF0q3EMJJGkq3yK-32" value="" style="endArrow=none;html=1;rounded=0;" parent="4LY0eMF0q3EMJJGkq3yK-30" edge="1">
          <mxGeometry width="50" height="50" relative="1" as="geometry">
            <mxPoint x="6" y="20.609999999999957" as="sourcePoint" />
            <mxPoint x="16" as="targetPoint" />
          </mxGeometry>
        </mxCell>
        <mxCell id="4LY0eMF0q3EMJJGkq3yK-37" value="" style="group" parent="1" vertex="1" connectable="0">
          <mxGeometry x="780" y="584.78" width="30" height="31.69999999999999" as="geometry" />
        </mxCell>
        <mxCell id="4LY0eMF0q3EMJJGkq3yK-38" value="8" style="text;html=1;align=center;verticalAlign=middle;whiteSpace=wrap;rounded=0;" parent="4LY0eMF0q3EMJJGkq3yK-37" vertex="1">
          <mxGeometry y="1.6999999999999886" width="30" height="30" as="geometry" />
        </mxCell>
        <mxCell id="4LY0eMF0q3EMJJGkq3yK-39" value="" style="endArrow=none;html=1;rounded=0;" parent="4LY0eMF0q3EMJJGkq3yK-37" edge="1">
          <mxGeometry width="50" height="50" relative="1" as="geometry">
            <mxPoint x="6" y="20.609999999999957" as="sourcePoint" />
            <mxPoint x="16" as="targetPoint" />
          </mxGeometry>
        </mxCell>
        <mxCell id="4LY0eMF0q3EMJJGkq3yK-44" value="" style="group" parent="1" vertex="1" connectable="0">
          <mxGeometry x="785" y="664" width="30" height="31.69999999999999" as="geometry" />
        </mxCell>
        <mxCell id="4LY0eMF0q3EMJJGkq3yK-45" value="8" style="text;html=1;align=center;verticalAlign=middle;whiteSpace=wrap;rounded=0;" parent="4LY0eMF0q3EMJJGkq3yK-44" vertex="1">
          <mxGeometry y="1.6999999999999886" width="30" height="30" as="geometry" />
        </mxCell>
        <mxCell id="4LY0eMF0q3EMJJGkq3yK-46" value="" style="endArrow=none;html=1;rounded=0;" parent="4LY0eMF0q3EMJJGkq3yK-44" edge="1">
          <mxGeometry width="50" height="50" relative="1" as="geometry">
            <mxPoint x="6" y="20.609999999999957" as="sourcePoint" />
            <mxPoint x="16" as="targetPoint" />
          </mxGeometry>
        </mxCell>
        <mxCell id="4LY0eMF0q3EMJJGkq3yK-51" value="&lt;font style=&quot;font-size: 30px;&quot;&gt;advanced_timer&lt;/font&gt;" style="text;html=1;align=center;verticalAlign=middle;whiteSpace=wrap;rounded=0;" parent="1" vertex="1">
          <mxGeometry x="94" y="120" width="216" height="30" as="geometry" />
        </mxCell>
        <mxCell id="4LY0eMF0q3EMJJGkq3yK-61" value="" style="group" parent="1" vertex="1" connectable="0">
          <mxGeometry x="52" y="383" width="30" height="31.69999999999999" as="geometry" />
        </mxCell>
        <mxCell id="4LY0eMF0q3EMJJGkq3yK-56" value="32" style="text;html=1;align=center;verticalAlign=middle;whiteSpace=wrap;rounded=0;" parent="4LY0eMF0q3EMJJGkq3yK-61" vertex="1">
          <mxGeometry y="1.6999999999999886" width="30" height="30" as="geometry" />
        </mxCell>
        <mxCell id="4LY0eMF0q3EMJJGkq3yK-57" value="" style="endArrow=none;html=1;rounded=0;" parent="4LY0eMF0q3EMJJGkq3yK-61" edge="1">
          <mxGeometry width="50" height="50" relative="1" as="geometry">
            <mxPoint x="4" y="20.609999999999957" as="sourcePoint" />
            <mxPoint x="14" as="targetPoint" />
          </mxGeometry>
        </mxCell>
        <mxCell id="4LY0eMF0q3EMJJGkq3yK-66" style="edgeStyle=orthogonalEdgeStyle;rounded=0;orthogonalLoop=1;jettySize=auto;html=1;exitX=1;exitY=0.5;exitDx=0;exitDy=0;entryX=0;entryY=0;entryDx=0;entryDy=0;strokeColor=#FFFF00;" parent="1" source="F1QgXw5RZE7JSTDuxs1F-1" target="4LY0eMF0q3EMJJGkq3yK-8" edge="1">
          <mxGeometry relative="1" as="geometry" />
        </mxCell>
        <mxCell id="4LY0eMF0q3EMJJGkq3yK-170" style="edgeStyle=orthogonalEdgeStyle;rounded=0;orthogonalLoop=1;jettySize=auto;html=1;exitX=0.5;exitY=0;exitDx=0;exitDy=0;entryX=0;entryY=0.5;entryDx=0;entryDy=0;" parent="1" source="4LY0eMF0q3EMJJGkq3yK-75" target="F1QgXw5RZE7JSTDuxs1F-14" edge="1">
          <mxGeometry relative="1" as="geometry">
            <Array as="points">
              <mxPoint x="730" y="308" />
              <mxPoint x="730" y="290" />
            </Array>
          </mxGeometry>
        </mxCell>
        <mxCell id="4LY0eMF0q3EMJJGkq3yK-75" value="" style="shape=trapezoid;perimeter=trapezoidPerimeter;whiteSpace=wrap;html=1;fixedSize=1;rotation=90;" parent="1" vertex="1">
          <mxGeometry x="553.35" y="295.85" width="200" height="24.7" as="geometry" />
        </mxCell>
        <mxCell id="4LY0eMF0q3EMJJGkq3yK-76" style="edgeStyle=orthogonalEdgeStyle;rounded=0;orthogonalLoop=1;jettySize=auto;html=1;exitX=1;exitY=0;exitDx=0;exitDy=0;entryX=0.06;entryY=0.998;entryDx=0;entryDy=0;entryPerimeter=0;strokeColor=#FF8000;" parent="1" source="4LY0eMF0q3EMJJGkq3yK-1" target="4LY0eMF0q3EMJJGkq3yK-75" edge="1">
          <mxGeometry relative="1" as="geometry">
            <Array as="points">
              <mxPoint x="470" y="321" />
              <mxPoint x="470" y="220" />
            </Array>
          </mxGeometry>
        </mxCell>
        <mxCell id="4LY0eMF0q3EMJJGkq3yK-80" value="Note: the diagram is simplified with 3 channels drawn, but the default is 8" style="text;html=1;align=center;verticalAlign=middle;whiteSpace=wrap;rounded=0;" parent="1" vertex="1">
          <mxGeometry x="94" y="750" width="266" height="40" as="geometry" />
        </mxCell>
        <mxCell id="4LY0eMF0q3EMJJGkq3yK-81" value="tcnt" style="text;html=1;align=center;verticalAlign=middle;whiteSpace=wrap;rounded=0;" parent="1" vertex="1">
          <mxGeometry x="500" y="200" width="30" height="30" as="geometry" />
        </mxCell>
        <mxCell id="4LY0eMF0q3EMJJGkq3yK-82" value="tpsc" style="text;html=1;align=center;verticalAlign=middle;whiteSpace=wrap;rounded=0;" parent="1" vertex="1">
          <mxGeometry x="501" y="228" width="30" height="30" as="geometry" />
        </mxCell>
        <mxCell id="4LY0eMF0q3EMJJGkq3yK-83" value="tarr" style="text;html=1;align=center;verticalAlign=middle;whiteSpace=wrap;rounded=0;" parent="1" vertex="1">
          <mxGeometry x="501" y="242.7" width="30" height="30" as="geometry" />
        </mxCell>
        <mxCell id="4LY0eMF0q3EMJJGkq3yK-84" value="tcr" style="text;html=1;align=center;verticalAlign=middle;whiteSpace=wrap;rounded=0;" parent="1" vertex="1">
          <mxGeometry x="500" y="211.7" width="30" height="30" as="geometry" />
        </mxCell>
        <mxCell id="4LY0eMF0q3EMJJGkq3yK-88" style="edgeStyle=orthogonalEdgeStyle;rounded=0;orthogonalLoop=1;jettySize=auto;html=1;exitX=1;exitY=0;exitDx=0;exitDy=0;entryX=0.361;entryY=0.996;entryDx=0;entryDy=0;entryPerimeter=0;jumpStyle=arc;jumpSize=7;strokeColor=#009900;" parent="1" source="4LY0eMF0q3EMJJGkq3yK-8" target="4LY0eMF0q3EMJJGkq3yK-75" edge="1">
          <mxGeometry relative="1" as="geometry">
            <Array as="points">
              <mxPoint x="480" y="460" />
              <mxPoint x="480" y="280" />
            </Array>
          </mxGeometry>
        </mxCell>
        <mxCell id="4LY0eMF0q3EMJJGkq3yK-90" style="edgeStyle=orthogonalEdgeStyle;rounded=0;orthogonalLoop=1;jettySize=auto;html=1;exitX=1;exitY=0;exitDx=0;exitDy=0;jumpStyle=arc;jumpSize=7;strokeColor=#009900;" parent="1" source="4LY0eMF0q3EMJJGkq3yK-16" edge="1">
          <mxGeometry relative="1" as="geometry">
            <mxPoint x="400" y="477" as="sourcePoint" />
            <mxPoint x="641" y="330" as="targetPoint" />
            <Array as="points">
              <mxPoint x="500" y="495" />
              <mxPoint x="500" y="330" />
            </Array>
          </mxGeometry>
        </mxCell>
        <mxCell id="4LY0eMF0q3EMJJGkq3yK-92" style="edgeStyle=orthogonalEdgeStyle;rounded=0;orthogonalLoop=1;jettySize=auto;html=1;exitX=1;exitY=0;exitDx=0;exitDy=0;entryX=0.418;entryY=1.017;entryDx=0;entryDy=0;entryPerimeter=0;jumpStyle=arc;jumpSize=7;strokeColor=#009900;" parent="1" target="4LY0eMF0q3EMJJGkq3yK-75" edge="1">
          <mxGeometry relative="1" as="geometry">
            <mxPoint x="390" y="473" as="sourcePoint" />
            <mxPoint x="614.4900000000001" y="315.52" as="targetPoint" />
            <Array as="points">
              <mxPoint x="390" y="470" />
              <mxPoint x="490" y="470" />
              <mxPoint x="490" y="292" />
            </Array>
          </mxGeometry>
        </mxCell>
        <mxCell id="4LY0eMF0q3EMJJGkq3yK-93" value="" style="group" parent="1" vertex="1" connectable="0">
          <mxGeometry x="545" y="209.3" width="30" height="31.69999999999999" as="geometry" />
        </mxCell>
        <mxCell id="4LY0eMF0q3EMJJGkq3yK-94" value="32" style="text;html=1;align=center;verticalAlign=middle;whiteSpace=wrap;rounded=0;" parent="4LY0eMF0q3EMJJGkq3yK-93" vertex="1">
          <mxGeometry y="1.6999999999999886" width="30" height="30" as="geometry" />
        </mxCell>
        <mxCell id="4LY0eMF0q3EMJJGkq3yK-95" value="" style="endArrow=none;html=1;rounded=0;" parent="4LY0eMF0q3EMJJGkq3yK-93" edge="1">
          <mxGeometry width="50" height="50" relative="1" as="geometry">
            <mxPoint x="4" y="20.609999999999957" as="sourcePoint" />
            <mxPoint x="14" as="targetPoint" />
          </mxGeometry>
        </mxCell>
        <mxCell id="4LY0eMF0q3EMJJGkq3yK-105" style="edgeStyle=orthogonalEdgeStyle;rounded=0;orthogonalLoop=1;jettySize=auto;html=1;jumpStyle=arc;jumpSize=7;entryX=0.939;entryY=0.951;entryDx=0;entryDy=0;entryPerimeter=0;exitX=1.001;exitY=0.14;exitDx=0;exitDy=0;exitPerimeter=0;strokeColor=#FF00FF;" parent="1" source="4LY0eMF0q3EMJJGkq3yK-16" target="4LY0eMF0q3EMJJGkq3yK-75" edge="1">
          <mxGeometry relative="1" as="geometry">
            <mxPoint x="420" y="511" as="sourcePoint" />
            <mxPoint x="612" y="376" as="targetPoint" />
            <Array as="points">
              <mxPoint x="413" y="511" />
              <mxPoint x="530" y="511" />
              <mxPoint x="530" y="396" />
            </Array>
          </mxGeometry>
        </mxCell>
        <mxCell id="4LY0eMF0q3EMJJGkq3yK-106" style="edgeStyle=orthogonalEdgeStyle;rounded=0;orthogonalLoop=1;jettySize=auto;html=1;exitX=1;exitY=0.25;exitDx=0;exitDy=0;jumpStyle=arc;jumpSize=7;strokeColor=#FF00FF;" parent="1" source="4LY0eMF0q3EMJJGkq3yK-12" edge="1">
          <mxGeometry relative="1" as="geometry">
            <mxPoint x="640" y="360" as="targetPoint" />
            <Array as="points">
              <mxPoint x="520" y="501" />
              <mxPoint x="520" y="360" />
            </Array>
          </mxGeometry>
        </mxCell>
        <mxCell id="4LY0eMF0q3EMJJGkq3yK-109" value="tccmr[0]" style="text;html=1;align=center;verticalAlign=middle;whiteSpace=wrap;rounded=0;" parent="1" vertex="1">
          <mxGeometry x="490" y="269" width="50" height="10" as="geometry" />
        </mxCell>
        <mxCell id="4LY0eMF0q3EMJJGkq3yK-110" value="tccmr[1]" style="text;html=1;align=center;verticalAlign=middle;whiteSpace=wrap;rounded=0;" parent="1" vertex="1">
          <mxGeometry x="490" y="279" width="50" height="15.3" as="geometry" />
        </mxCell>
        <mxCell id="4LY0eMF0q3EMJJGkq3yK-111" value="tccmr[7]" style="text;html=1;align=center;verticalAlign=middle;whiteSpace=wrap;rounded=0;" parent="1" vertex="1">
          <mxGeometry x="491" y="310" width="50" height="30" as="geometry" />
        </mxCell>
        <mxCell id="4LY0eMF0q3EMJJGkq3yK-114" value="" style="group" parent="1" vertex="1" connectable="0">
          <mxGeometry x="555" y="268.3" width="30" height="31.69999999999999" as="geometry" />
        </mxCell>
        <mxCell id="4LY0eMF0q3EMJJGkq3yK-115" value="32" style="text;html=1;align=center;verticalAlign=middle;whiteSpace=wrap;rounded=0;" parent="4LY0eMF0q3EMJJGkq3yK-114" vertex="1">
          <mxGeometry y="1.6999999999999886" width="30" height="30" as="geometry" />
        </mxCell>
        <mxCell id="4LY0eMF0q3EMJJGkq3yK-116" value="" style="endArrow=none;html=1;rounded=0;" parent="4LY0eMF0q3EMJJGkq3yK-114" edge="1">
          <mxGeometry width="50" height="50" relative="1" as="geometry">
            <mxPoint x="4" y="20.609999999999957" as="sourcePoint" />
            <mxPoint x="14" as="targetPoint" />
          </mxGeometry>
        </mxCell>
        <mxCell id="4LY0eMF0q3EMJJGkq3yK-117" value="" style="group" parent="1" vertex="1" connectable="0">
          <mxGeometry x="590" y="281.3" width="30" height="31.69999999999999" as="geometry" />
        </mxCell>
        <mxCell id="4LY0eMF0q3EMJJGkq3yK-118" value="32" style="text;html=1;align=center;verticalAlign=middle;whiteSpace=wrap;rounded=0;" parent="4LY0eMF0q3EMJJGkq3yK-117" vertex="1">
          <mxGeometry y="1.6999999999999886" width="30" height="30" as="geometry" />
        </mxCell>
        <mxCell id="4LY0eMF0q3EMJJGkq3yK-119" value="" style="endArrow=none;html=1;rounded=0;" parent="4LY0eMF0q3EMJJGkq3yK-117" edge="1">
          <mxGeometry width="50" height="50" relative="1" as="geometry">
            <mxPoint x="4" y="20.609999999999957" as="sourcePoint" />
            <mxPoint x="14" as="targetPoint" />
          </mxGeometry>
        </mxCell>
        <mxCell id="4LY0eMF0q3EMJJGkq3yK-120" value="" style="group" parent="1" vertex="1" connectable="0">
          <mxGeometry x="555" y="318" width="30" height="31.69999999999999" as="geometry" />
        </mxCell>
        <mxCell id="4LY0eMF0q3EMJJGkq3yK-121" value="32" style="text;html=1;align=center;verticalAlign=middle;whiteSpace=wrap;rounded=0;" parent="4LY0eMF0q3EMJJGkq3yK-120" vertex="1">
          <mxGeometry y="1.6999999999999886" width="30" height="30" as="geometry" />
        </mxCell>
        <mxCell id="4LY0eMF0q3EMJJGkq3yK-122" value="" style="endArrow=none;html=1;rounded=0;" parent="4LY0eMF0q3EMJJGkq3yK-120" edge="1">
          <mxGeometry width="50" height="50" relative="1" as="geometry">
            <mxPoint x="4" y="20.609999999999957" as="sourcePoint" />
            <mxPoint x="14" as="targetPoint" />
          </mxGeometry>
        </mxCell>
        <mxCell id="4LY0eMF0q3EMJJGkq3yK-123" value="tccr[0]" style="text;html=1;align=center;verticalAlign=middle;whiteSpace=wrap;rounded=0;" parent="1" vertex="1">
          <mxGeometry x="525" y="322.7" width="30" height="30" as="geometry" />
        </mxCell>
        <mxCell id="4LY0eMF0q3EMJJGkq3yK-124" value="tccr[1]" style="text;html=1;align=center;verticalAlign=middle;whiteSpace=wrap;rounded=0;" parent="1" vertex="1">
          <mxGeometry x="525" y="337.7" width="30" height="30" as="geometry" />
        </mxCell>
        <mxCell id="4LY0eMF0q3EMJJGkq3yK-126" value="tccr[7]" style="text;html=1;align=center;verticalAlign=middle;whiteSpace=wrap;rounded=0;" parent="1" vertex="1">
          <mxGeometry x="531" y="380" width="30" height="20" as="geometry" />
        </mxCell>
        <mxCell id="4LY0eMF0q3EMJJGkq3yK-127" value="" style="group" parent="1" vertex="1" connectable="0">
          <mxGeometry x="590" y="332.7" width="30" height="31.69999999999999" as="geometry" />
        </mxCell>
        <mxCell id="4LY0eMF0q3EMJJGkq3yK-128" value="32" style="text;html=1;align=center;verticalAlign=middle;whiteSpace=wrap;rounded=0;" parent="4LY0eMF0q3EMJJGkq3yK-127" vertex="1">
          <mxGeometry y="1.6999999999999886" width="30" height="30" as="geometry" />
        </mxCell>
        <mxCell id="4LY0eMF0q3EMJJGkq3yK-129" value="" style="endArrow=none;html=1;rounded=0;" parent="4LY0eMF0q3EMJJGkq3yK-127" edge="1">
          <mxGeometry width="50" height="50" relative="1" as="geometry">
            <mxPoint x="4" y="20.609999999999957" as="sourcePoint" />
            <mxPoint x="14" as="targetPoint" />
          </mxGeometry>
        </mxCell>
        <mxCell id="4LY0eMF0q3EMJJGkq3yK-130" value="" style="group" parent="1" vertex="1" connectable="0">
          <mxGeometry x="565" y="350" width="30" height="31.69999999999999" as="geometry" />
        </mxCell>
        <mxCell id="4LY0eMF0q3EMJJGkq3yK-131" value="32" style="text;html=1;align=center;verticalAlign=middle;whiteSpace=wrap;rounded=0;" parent="4LY0eMF0q3EMJJGkq3yK-130" vertex="1">
          <mxGeometry y="1.6999999999999886" width="30" height="30" as="geometry" />
        </mxCell>
        <mxCell id="4LY0eMF0q3EMJJGkq3yK-132" value="" style="endArrow=none;html=1;rounded=0;" parent="4LY0eMF0q3EMJJGkq3yK-130" edge="1">
          <mxGeometry width="50" height="50" relative="1" as="geometry">
            <mxPoint x="4" y="20.609999999999957" as="sourcePoint" />
            <mxPoint x="14" as="targetPoint" />
          </mxGeometry>
        </mxCell>
        <mxCell id="4LY0eMF0q3EMJJGkq3yK-133" value="" style="group" parent="1" vertex="1" connectable="0">
          <mxGeometry x="600" y="385.7" width="30" height="31.69999999999999" as="geometry" />
        </mxCell>
        <mxCell id="4LY0eMF0q3EMJJGkq3yK-134" value="32" style="text;html=1;align=center;verticalAlign=middle;whiteSpace=wrap;rounded=0;" parent="4LY0eMF0q3EMJJGkq3yK-133" vertex="1">
          <mxGeometry y="1.6999999999999886" width="30" height="30" as="geometry" />
        </mxCell>
        <mxCell id="4LY0eMF0q3EMJJGkq3yK-135" value="" style="endArrow=none;html=1;rounded=0;" parent="4LY0eMF0q3EMJJGkq3yK-133" edge="1">
          <mxGeometry width="50" height="50" relative="1" as="geometry">
            <mxPoint x="4" y="20.609999999999957" as="sourcePoint" />
            <mxPoint x="14" as="targetPoint" />
          </mxGeometry>
        </mxCell>
        <mxCell id="4LY0eMF0q3EMJJGkq3yK-137" value="&lt;font size=&quot;1&quot;&gt;&lt;b style=&quot;font-size: 14px;&quot;&gt;. . .&lt;/b&gt;&lt;/font&gt;" style="text;html=1;align=center;verticalAlign=middle;whiteSpace=wrap;rounded=0;rotation=90;" parent="1" vertex="1">
          <mxGeometry x="506" y="301.9" width="25" height="16.1" as="geometry" />
        </mxCell>
        <mxCell id="4LY0eMF0q3EMJJGkq3yK-139" value="&lt;font size=&quot;1&quot;&gt;&lt;b style=&quot;font-size: 14px;&quot;&gt;. . .&lt;/b&gt;&lt;/font&gt;" style="text;html=1;align=center;verticalAlign=middle;whiteSpace=wrap;rounded=0;rotation=90;" parent="1" vertex="1">
          <mxGeometry x="533.5" y="365.59999999999997" width="25" height="16.1" as="geometry" />
        </mxCell>
        <mxCell id="4LY0eMF0q3EMJJGkq3yK-143" value="t_out[0]" style="text;html=1;align=center;verticalAlign=middle;whiteSpace=wrap;rounded=0;" parent="1" vertex="1">
          <mxGeometry x="565" y="474.46999999999997" width="40" height="30" as="geometry" />
        </mxCell>
        <mxCell id="4LY0eMF0q3EMJJGkq3yK-145" value="t_out[1]" style="text;html=1;align=center;verticalAlign=middle;whiteSpace=wrap;rounded=0;" parent="1" vertex="1">
          <mxGeometry x="570" y="491.46999999999997" width="40" height="30" as="geometry" />
        </mxCell>
        <mxCell id="4LY0eMF0q3EMJJGkq3yK-147" value="t_out[7]" style="text;html=1;align=center;verticalAlign=middle;whiteSpace=wrap;rounded=0;" parent="1" vertex="1">
          <mxGeometry x="575" y="522.47" width="40" height="30" as="geometry" />
        </mxCell>
        <mxCell id="4LY0eMF0q3EMJJGkq3yK-148" value="&lt;font size=&quot;1&quot;&gt;&lt;b style=&quot;font-size: 14px;&quot;&gt;. . .&lt;/b&gt;&lt;/font&gt;" style="text;html=1;align=center;verticalAlign=middle;whiteSpace=wrap;rounded=0;rotation=90;" parent="1" vertex="1">
          <mxGeometry x="615" y="520.0699999999999" width="25" height="16.1" as="geometry" />
        </mxCell>
        <mxCell id="4LY0eMF0q3EMJJGkq3yK-151" value="t_irq[0]" style="text;html=1;align=center;verticalAlign=middle;whiteSpace=wrap;rounded=0;" parent="1" vertex="1">
          <mxGeometry x="535" y="552.78" width="40" height="30" as="geometry" />
        </mxCell>
        <mxCell id="4LY0eMF0q3EMJJGkq3yK-152" value="t_irq[1]" style="text;html=1;align=center;verticalAlign=middle;whiteSpace=wrap;rounded=0;" parent="1" vertex="1">
          <mxGeometry x="534" y="571.78" width="40" height="30" as="geometry" />
        </mxCell>
        <mxCell id="4LY0eMF0q3EMJJGkq3yK-153" value="t_irq[7]" style="text;html=1;align=center;verticalAlign=middle;whiteSpace=wrap;rounded=0;" parent="1" vertex="1">
          <mxGeometry x="525" y="601.47" width="40" height="30" as="geometry" />
        </mxCell>
        <mxCell id="4LY0eMF0q3EMJJGkq3yK-155" value="&lt;font size=&quot;1&quot;&gt;&lt;b style=&quot;font-size: 14px;&quot;&gt;. . .&lt;/b&gt;&lt;/font&gt;" style="text;html=1;align=center;verticalAlign=middle;whiteSpace=wrap;rounded=0;rotation=90;" parent="1" vertex="1">
          <mxGeometry x="595" y="601.78" width="25" height="16.1" as="geometry" />
        </mxCell>
        <mxCell id="4LY0eMF0q3EMJJGkq3yK-162" style="edgeStyle=orthogonalEdgeStyle;rounded=0;orthogonalLoop=1;jettySize=auto;html=1;exitX=1;exitY=1;exitDx=0;exitDy=0;entryX=0;entryY=0.5;entryDx=0;entryDy=0;" parent="1" source="4LY0eMF0q3EMJJGkq3yK-16" target="aOVrWrjgvoJSjb1ijP1g-2" edge="1">
          <mxGeometry relative="1" as="geometry">
            <mxPoint x="651.8700000000001" y="704.845" as="targetPoint" />
            <Array as="points">
              <mxPoint x="413" y="610" />
              <mxPoint x="470" y="610" />
              <mxPoint x="470" y="705" />
              <mxPoint x="745" y="705" />
            </Array>
          </mxGeometry>
        </mxCell>
        <mxCell id="4LY0eMF0q3EMJJGkq3yK-163" value="t_oe[0]" style="text;html=1;align=center;verticalAlign=middle;whiteSpace=wrap;rounded=0;" parent="1" vertex="1">
          <mxGeometry x="515" y="634.47" width="40" height="30" as="geometry" />
        </mxCell>
        <mxCell id="4LY0eMF0q3EMJJGkq3yK-164" value="t_oe[1]" style="text;html=1;align=center;verticalAlign=middle;whiteSpace=wrap;rounded=0;" parent="1" vertex="1">
          <mxGeometry x="515" y="653" width="40" height="30" as="geometry" />
        </mxCell>
        <mxCell id="4LY0eMF0q3EMJJGkq3yK-165" value="t_oe[7]" style="text;html=1;align=center;verticalAlign=middle;whiteSpace=wrap;rounded=0;" parent="1" vertex="1">
          <mxGeometry x="515" y="683" width="40" height="30" as="geometry" />
        </mxCell>
        <mxCell id="4LY0eMF0q3EMJJGkq3yK-167" value="&lt;font size=&quot;1&quot;&gt;&lt;b style=&quot;font-size: 14px;&quot;&gt;. . .&lt;/b&gt;&lt;/font&gt;" style="text;html=1;align=center;verticalAlign=middle;whiteSpace=wrap;rounded=0;rotation=90;" parent="1" vertex="1">
          <mxGeometry x="565" y="683" width="25" height="16.1" as="geometry" />
        </mxCell>
        <mxCell id="MMl0id7Liuc3tZu3IlEb-2" value="" style="group" parent="1" vertex="1" connectable="0">
          <mxGeometry x="810" y="280" width="30" height="31.69999999999999" as="geometry" />
        </mxCell>
        <mxCell id="MMl0id7Liuc3tZu3IlEb-3" value="32" style="text;html=1;align=center;verticalAlign=middle;whiteSpace=wrap;rounded=0;" parent="MMl0id7Liuc3tZu3IlEb-2" vertex="1">
          <mxGeometry y="1.6999999999999886" width="30" height="30" as="geometry" />
        </mxCell>
        <mxCell id="MMl0id7Liuc3tZu3IlEb-4" value="" style="endArrow=none;html=1;rounded=0;" parent="MMl0id7Liuc3tZu3IlEb-2" edge="1">
          <mxGeometry width="50" height="50" relative="1" as="geometry">
            <mxPoint x="4" y="20.609999999999957" as="sourcePoint" />
            <mxPoint x="14" as="targetPoint" />
          </mxGeometry>
        </mxCell>
        <mxCell id="MMl0id7Liuc3tZu3IlEb-7" style="edgeStyle=orthogonalEdgeStyle;rounded=0;orthogonalLoop=1;jettySize=auto;html=1;exitX=1;exitY=0.5;exitDx=0;exitDy=0;entryX=0;entryY=0.5;entryDx=0;entryDy=0;" parent="1" source="MMl0id7Liuc3tZu3IlEb-5" target="4LY0eMF0q3EMJJGkq3yK-75" edge="1">
          <mxGeometry relative="1" as="geometry" />
        </mxCell>
        <mxCell id="MMl0id7Liuc3tZu3IlEb-5" value="Right-shift by 2" style="rounded=0;whiteSpace=wrap;html=1;" parent="1" vertex="1">
          <mxGeometry x="520" y="166" width="85" height="34" as="geometry" />
        </mxCell>
        <mxCell id="MMl0id7Liuc3tZu3IlEb-16" style="edgeStyle=orthogonalEdgeStyle;rounded=0;orthogonalLoop=1;jettySize=auto;html=1;exitX=1;exitY=0.5;exitDx=0;exitDy=0;exitPerimeter=0;entryX=0;entryY=0.5;entryDx=0;entryDy=0;" parent="1" source="MMl0id7Liuc3tZu3IlEb-8" target="F1QgXw5RZE7JSTDuxs1F-15" edge="1">
          <mxGeometry relative="1" as="geometry" />
        </mxCell>
        <mxCell id="MMl0id7Liuc3tZu3IlEb-8" value="" style="verticalLabelPosition=bottom;shadow=0;dashed=0;align=center;html=1;verticalAlign=top;shape=mxgraph.electrical.logic_gates.logic_gate;operation=or;rotation=90;" parent="1" vertex="1">
          <mxGeometry x="370" y="683" width="70" height="62.72" as="geometry" />
        </mxCell>
        <mxCell id="MMl0id7Liuc3tZu3IlEb-9" style="edgeStyle=orthogonalEdgeStyle;rounded=0;orthogonalLoop=1;jettySize=auto;html=1;exitX=0.5;exitY=1;exitDx=0;exitDy=0;entryX=0;entryY=0.75;entryDx=0;entryDy=0;entryPerimeter=0;" parent="1" source="4LY0eMF0q3EMJJGkq3yK-8" target="MMl0id7Liuc3tZu3IlEb-8" edge="1">
          <mxGeometry relative="1" as="geometry">
            <Array as="points">
              <mxPoint x="315" y="670" />
              <mxPoint x="389" y="670" />
            </Array>
          </mxGeometry>
        </mxCell>
        <mxCell id="MMl0id7Liuc3tZu3IlEb-10" style="edgeStyle=orthogonalEdgeStyle;rounded=0;orthogonalLoop=1;jettySize=auto;html=1;exitX=0.5;exitY=1;exitDx=0;exitDy=0;entryX=0.244;entryY=0.516;entryDx=0;entryDy=0;entryPerimeter=0;" parent="1" source="4LY0eMF0q3EMJJGkq3yK-12" target="MMl0id7Liuc3tZu3IlEb-8" edge="1">
          <mxGeometry relative="1" as="geometry">
            <Array as="points">
              <mxPoint x="340" y="593" />
              <mxPoint x="340" y="660" />
              <mxPoint x="404" y="660" />
            </Array>
          </mxGeometry>
        </mxCell>
        <mxCell id="MMl0id7Liuc3tZu3IlEb-11" style="edgeStyle=orthogonalEdgeStyle;rounded=0;orthogonalLoop=1;jettySize=auto;html=1;exitX=0.5;exitY=1;exitDx=0;exitDy=0;entryX=0;entryY=0.25;entryDx=0;entryDy=0;entryPerimeter=0;" parent="1" source="4LY0eMF0q3EMJJGkq3yK-16" target="MMl0id7Liuc3tZu3IlEb-8" edge="1">
          <mxGeometry relative="1" as="geometry">
            <Array as="points">
              <mxPoint x="421" y="618" />
              <mxPoint x="421" y="649" />
            </Array>
          </mxGeometry>
        </mxCell>
        <mxCell id="MMl0id7Liuc3tZu3IlEb-12" value="error[0]" style="text;html=1;align=center;verticalAlign=middle;whiteSpace=wrap;rounded=0;" parent="1" vertex="1">
          <mxGeometry x="310" y="659.47" width="40" height="30" as="geometry" />
        </mxCell>
        <mxCell id="MMl0id7Liuc3tZu3IlEb-13" value="error[1]" style="text;html=1;align=center;verticalAlign=middle;whiteSpace=wrap;rounded=0;" parent="1" vertex="1">
          <mxGeometry x="341" y="638" width="40" height="30" as="geometry" />
        </mxCell>
        <mxCell id="MMl0id7Liuc3tZu3IlEb-14" value="error[7]" style="text;html=1;align=center;verticalAlign=middle;whiteSpace=wrap;rounded=0;" parent="1" vertex="1">
          <mxGeometry x="410" y="622.86" width="40" height="30" as="geometry" />
        </mxCell>
        <mxCell id="MMl0id7Liuc3tZu3IlEb-15" value="&lt;font size=&quot;1&quot;&gt;&lt;b style=&quot;font-size: 14px;&quot;&gt;. . .&lt;/b&gt;&lt;/font&gt;" style="text;html=1;align=center;verticalAlign=middle;whiteSpace=wrap;rounded=0;rotation=-30;" parent="1" vertex="1">
          <mxGeometry x="381" y="634.4699999999999" width="25" height="16.1" as="geometry" />
        </mxCell>
        <mxCell id="MMl0id7Liuc3tZu3IlEb-21" value="" style="group" parent="1" vertex="1" connectable="0">
          <mxGeometry x="240" y="200" width="210" height="90" as="geometry" />
        </mxCell>
        <mxCell id="MMl0id7Liuc3tZu3IlEb-22" value="&lt;div&gt;Control register&lt;br&gt;&lt;/div&gt;&lt;div&gt;Prescaler&lt;br&gt;&lt;/div&gt;&lt;div&gt;Auto-Reload Register&lt;br&gt;&lt;/div&gt;" style="rounded=0;whiteSpace=wrap;html=1;" parent="MMl0id7Liuc3tZu3IlEb-21" vertex="1">
          <mxGeometry width="210.00000000000003" height="78.93203883495144" as="geometry" />
        </mxCell>
        <mxCell id="MMl0id7Liuc3tZu3IlEb-23" value="" style="triangle;whiteSpace=wrap;html=1;" parent="MMl0id7Liuc3tZu3IlEb-21" vertex="1">
          <mxGeometry y="66.69902912621357" width="18.103448275862068" height="11.650485436893204" as="geometry" />
        </mxCell>
        <mxCell id="MMl0id7Liuc3tZu3IlEb-24" value="" style="ellipse;whiteSpace=wrap;html=1;aspect=fixed;" parent="MMl0id7Liuc3tZu3IlEb-21" vertex="1">
          <mxGeometry x="18.103448275862068" y="78.3495145631068" width="6.959223300970873" height="6.959223300970873" as="geometry" />
        </mxCell>
        <mxCell id="MMl0id7Liuc3tZu3IlEb-25" style="edgeStyle=orthogonalEdgeStyle;rounded=0;orthogonalLoop=1;jettySize=auto;html=1;exitX=1;exitY=0.25;exitDx=0;exitDy=0;entryX=0.111;entryY=0.937;entryDx=0;entryDy=0;entryPerimeter=0;jumpStyle=arc;" parent="1" edge="1">
          <mxGeometry relative="1" as="geometry">
            <mxPoint x="450" y="222.73300970873788" as="sourcePoint" />
            <mxPoint x="642.5561" y="233.40000000000032" as="targetPoint" />
            <Array as="points">
              <mxPoint x="450" y="233" />
              <mxPoint x="546" y="233" />
            </Array>
          </mxGeometry>
        </mxCell>
        <mxCell id="MMl0id7Liuc3tZu3IlEb-26" style="edgeStyle=orthogonalEdgeStyle;rounded=0;orthogonalLoop=1;jettySize=auto;html=1;exitX=1;exitY=0.5;exitDx=0;exitDy=0;entryX=0.203;entryY=0.901;entryDx=0;entryDy=0;entryPerimeter=0;jumpStyle=arc;" parent="1" source="MMl0id7Liuc3tZu3IlEb-22" target="4LY0eMF0q3EMJJGkq3yK-75" edge="1">
          <mxGeometry relative="1" as="geometry">
            <Array as="points">
              <mxPoint x="450" y="249" />
              <mxPoint x="546" y="249" />
            </Array>
          </mxGeometry>
        </mxCell>
        <mxCell id="MMl0id7Liuc3tZu3IlEb-27" style="edgeStyle=orthogonalEdgeStyle;rounded=0;orthogonalLoop=1;jettySize=auto;html=1;exitX=1;exitY=0.75;exitDx=0;exitDy=0;entryX=0.278;entryY=0.991;entryDx=0;entryDy=0;entryPerimeter=0;jumpStyle=arc;" parent="1" source="MMl0id7Liuc3tZu3IlEb-22" target="4LY0eMF0q3EMJJGkq3yK-75" edge="1">
          <mxGeometry relative="1" as="geometry">
            <Array as="points">
              <mxPoint x="450" y="264" />
              <mxPoint x="546" y="264" />
            </Array>
          </mxGeometry>
        </mxCell>
        <mxCell id="4LY0eMF0q3EMJJGkq3yK-99" value="" style="group" parent="1" vertex="1" connectable="0">
          <mxGeometry x="545" y="238.3" width="30" height="31.69999999999999" as="geometry" />
        </mxCell>
        <mxCell id="4LY0eMF0q3EMJJGkq3yK-100" value="32" style="text;html=1;align=center;verticalAlign=middle;whiteSpace=wrap;rounded=0;" parent="4LY0eMF0q3EMJJGkq3yK-99" vertex="1">
          <mxGeometry y="1.6999999999999886" width="30" height="30" as="geometry" />
        </mxCell>
        <mxCell id="4LY0eMF0q3EMJJGkq3yK-101" value="" style="endArrow=none;html=1;rounded=0;" parent="4LY0eMF0q3EMJJGkq3yK-99" edge="1">
          <mxGeometry width="50" height="50" relative="1" as="geometry">
            <mxPoint x="4" y="20.609999999999957" as="sourcePoint" />
            <mxPoint x="14" as="targetPoint" />
          </mxGeometry>
        </mxCell>
        <mxCell id="4LY0eMF0q3EMJJGkq3yK-102" value="" style="group" parent="1" vertex="1" connectable="0">
          <mxGeometry x="590" y="254.7" width="30" height="31.69999999999999" as="geometry" />
        </mxCell>
        <mxCell id="4LY0eMF0q3EMJJGkq3yK-103" value="32" style="text;html=1;align=center;verticalAlign=middle;whiteSpace=wrap;rounded=0;" parent="4LY0eMF0q3EMJJGkq3yK-102" vertex="1">
          <mxGeometry y="1.6999999999999886" width="30" height="30" as="geometry" />
        </mxCell>
        <mxCell id="4LY0eMF0q3EMJJGkq3yK-104" value="" style="endArrow=none;html=1;rounded=0;" parent="4LY0eMF0q3EMJJGkq3yK-102" edge="1">
          <mxGeometry width="50" height="50" relative="1" as="geometry">
            <mxPoint x="4" y="20.609999999999957" as="sourcePoint" />
            <mxPoint x="14" as="targetPoint" />
          </mxGeometry>
        </mxCell>
        <mxCell id="4LY0eMF0q3EMJJGkq3yK-96" value="" style="group" parent="1" vertex="1" connectable="0">
          <mxGeometry x="590" y="222" width="30" height="31.69999999999999" as="geometry" />
        </mxCell>
        <mxCell id="4LY0eMF0q3EMJJGkq3yK-97" value="32" style="text;html=1;align=center;verticalAlign=middle;whiteSpace=wrap;rounded=0;" parent="4LY0eMF0q3EMJJGkq3yK-96" vertex="1">
          <mxGeometry y="1.6999999999999886" width="30" height="30" as="geometry" />
        </mxCell>
        <mxCell id="4LY0eMF0q3EMJJGkq3yK-98" value="" style="endArrow=none;html=1;rounded=0;" parent="4LY0eMF0q3EMJJGkq3yK-96" edge="1">
          <mxGeometry width="50" height="50" relative="1" as="geometry">
            <mxPoint x="4" y="20.609999999999957" as="sourcePoint" />
            <mxPoint x="14" as="targetPoint" />
          </mxGeometry>
        </mxCell>
        <mxCell id="4LY0eMF0q3EMJJGkq3yK-1" value="time-base" style="rounded=0;whiteSpace=wrap;html=1;fillColor=#FFFFCC;" parent="1" vertex="1">
          <mxGeometry x="240" y="320.55" width="210.00000000000003" height="52.621359223300956" as="geometry" />
        </mxCell>
        <mxCell id="4LY0eMF0q3EMJJGkq3yK-2" value="" style="triangle;whiteSpace=wrap;html=1;" parent="1" vertex="1">
          <mxGeometry x="240" y="360.55" width="10" height="12.23" as="geometry" />
        </mxCell>
        <mxCell id="4LY0eMF0q3EMJJGkq3yK-3" value="" style="ellipse;whiteSpace=wrap;html=1;aspect=fixed;" parent="1" vertex="1">
          <mxGeometry x="250.0034482758621" y="372.7830097087379" width="4.639482200647248" height="4.639482200647248" as="geometry" />
        </mxCell>
        <mxCell id="MMl0id7Liuc3tZu3IlEb-29" style="edgeStyle=orthogonalEdgeStyle;rounded=0;orthogonalLoop=1;jettySize=auto;html=1;exitX=0.75;exitY=1;exitDx=0;exitDy=0;entryX=0.75;entryY=0;entryDx=0;entryDy=0;" parent="1" source="MMl0id7Liuc3tZu3IlEb-22" target="4LY0eMF0q3EMJJGkq3yK-1" edge="1">
          <mxGeometry relative="1" as="geometry" />
        </mxCell>
        <mxCell id="MMl0id7Liuc3tZu3IlEb-30" style="edgeStyle=orthogonalEdgeStyle;rounded=0;orthogonalLoop=1;jettySize=auto;html=1;exitX=0.5;exitY=1;exitDx=0;exitDy=0;entryX=0.5;entryY=0;entryDx=0;entryDy=0;" parent="1" source="MMl0id7Liuc3tZu3IlEb-22" target="4LY0eMF0q3EMJJGkq3yK-1" edge="1">
          <mxGeometry relative="1" as="geometry" />
        </mxCell>
        <mxCell id="MMl0id7Liuc3tZu3IlEb-31" value="tarr" style="text;html=1;align=center;verticalAlign=middle;whiteSpace=wrap;rounded=0;" parent="1" vertex="1">
          <mxGeometry x="397" y="302.7" width="30" height="18.3" as="geometry" />
        </mxCell>
        <mxCell id="MMl0id7Liuc3tZu3IlEb-36" value="" style="group" parent="1" vertex="1" connectable="0">
          <mxGeometry x="390" y="283" width="30" height="30" as="geometry" />
        </mxCell>
        <mxCell id="MMl0id7Liuc3tZu3IlEb-33" value="32" style="text;html=1;align=center;verticalAlign=middle;whiteSpace=wrap;rounded=0;" parent="MMl0id7Liuc3tZu3IlEb-36" vertex="1">
          <mxGeometry width="30" height="30" as="geometry" />
        </mxCell>
        <mxCell id="MMl0id7Liuc3tZu3IlEb-34" value="" style="endArrow=none;html=1;rounded=0;exitX=0;exitY=0.5;exitDx=0;exitDy=0;" parent="MMl0id7Liuc3tZu3IlEb-36" source="MMl0id7Liuc3tZu3IlEb-33" edge="1">
          <mxGeometry width="50" height="50" relative="1" as="geometry">
            <mxPoint x="6" y="20.909999999999968" as="sourcePoint" />
            <mxPoint x="16" y="0.30000000000001137" as="targetPoint" />
          </mxGeometry>
        </mxCell>
        <mxCell id="MMl0id7Liuc3tZu3IlEb-40" value="" style="group" parent="1" vertex="1" connectable="0">
          <mxGeometry x="338" y="283" width="30" height="30" as="geometry" />
        </mxCell>
        <mxCell id="MMl0id7Liuc3tZu3IlEb-41" value="32" style="text;html=1;align=center;verticalAlign=middle;whiteSpace=wrap;rounded=0;" parent="MMl0id7Liuc3tZu3IlEb-40" vertex="1">
          <mxGeometry width="30" height="30" as="geometry" />
        </mxCell>
        <mxCell id="MMl0id7Liuc3tZu3IlEb-42" value="" style="endArrow=none;html=1;rounded=0;exitX=0;exitY=0.5;exitDx=0;exitDy=0;" parent="MMl0id7Liuc3tZu3IlEb-40" source="MMl0id7Liuc3tZu3IlEb-41" edge="1">
          <mxGeometry width="50" height="50" relative="1" as="geometry">
            <mxPoint x="6" y="20.909999999999968" as="sourcePoint" />
            <mxPoint x="16" y="0.30000000000001137" as="targetPoint" />
          </mxGeometry>
        </mxCell>
        <mxCell id="MMl0id7Liuc3tZu3IlEb-43" value="tpsc" style="text;html=1;align=center;verticalAlign=middle;whiteSpace=wrap;rounded=0;" parent="1" vertex="1">
          <mxGeometry x="346" y="301.7" width="30" height="18.3" as="geometry" />
        </mxCell>
        <mxCell id="MMl0id7Liuc3tZu3IlEb-44" style="edgeStyle=orthogonalEdgeStyle;rounded=0;orthogonalLoop=1;jettySize=auto;html=1;exitX=0.25;exitY=1;exitDx=0;exitDy=0;entryX=0;entryY=0;entryDx=0;entryDy=0;" parent="1" source="MMl0id7Liuc3tZu3IlEb-22" target="4LY0eMF0q3EMJJGkq3yK-1" edge="1">
          <mxGeometry relative="1" as="geometry">
            <Array as="points">
              <mxPoint x="293" y="290" />
              <mxPoint x="240" y="290" />
            </Array>
          </mxGeometry>
        </mxCell>
        <mxCell id="MMl0id7Liuc3tZu3IlEb-45" style="edgeStyle=orthogonalEdgeStyle;rounded=0;orthogonalLoop=1;jettySize=auto;html=1;exitX=0.25;exitY=1;exitDx=0;exitDy=0;entryX=0.213;entryY=0.021;entryDx=0;entryDy=0;entryPerimeter=0;" parent="1" source="MMl0id7Liuc3tZu3IlEb-22" target="4LY0eMF0q3EMJJGkq3yK-1" edge="1">
          <mxGeometry relative="1" as="geometry">
            <Array as="points">
              <mxPoint x="293" y="290" />
              <mxPoint x="285" y="290" />
            </Array>
          </mxGeometry>
        </mxCell>
        <mxCell id="MMl0id7Liuc3tZu3IlEb-46" style="edgeStyle=orthogonalEdgeStyle;rounded=0;orthogonalLoop=1;jettySize=auto;html=1;exitX=0.25;exitY=1;exitDx=0;exitDy=0;entryX=0.41;entryY=0.037;entryDx=0;entryDy=0;entryPerimeter=0;" parent="1" source="MMl0id7Liuc3tZu3IlEb-22" target="4LY0eMF0q3EMJJGkq3yK-1" edge="1">
          <mxGeometry relative="1" as="geometry">
            <Array as="points">
              <mxPoint x="293" y="290" />
              <mxPoint x="326" y="290" />
            </Array>
          </mxGeometry>
        </mxCell>
        <mxCell id="MMl0id7Liuc3tZu3IlEb-47" value="&lt;div&gt;tcr[0]&lt;/div&gt;&lt;div&gt;tc_rst&lt;br&gt;&lt;/div&gt;" style="text;html=1;align=center;verticalAlign=middle;whiteSpace=wrap;rounded=0;" parent="1" vertex="1">
          <mxGeometry x="249.2" y="290.55000000000007" width="30" height="30" as="geometry" />
        </mxCell>
        <mxCell id="MMl0id7Liuc3tZu3IlEb-48" value="&lt;div&gt;tcr[1]&lt;/div&gt;&lt;div&gt;tc_irq_en&lt;br&gt;&lt;/div&gt;" style="text;html=1;align=center;verticalAlign=middle;whiteSpace=wrap;rounded=0;" parent="1" vertex="1">
          <mxGeometry x="185" y="290" width="50" height="30" as="geometry" />
        </mxCell>
        <mxCell id="MMl0id7Liuc3tZu3IlEb-49" value="&lt;div&gt;tcr[7]&lt;/div&gt;&lt;div&gt;tc_en&lt;br&gt;&lt;/div&gt;" style="text;html=1;align=center;verticalAlign=middle;whiteSpace=wrap;rounded=0;" parent="1" vertex="1">
          <mxGeometry x="290" y="291.00000000000006" width="30" height="30" as="geometry" />
        </mxCell>
        <mxCell id="MMl0id7Liuc3tZu3IlEb-55" style="edgeStyle=orthogonalEdgeStyle;rounded=0;orthogonalLoop=1;jettySize=auto;html=1;exitX=1;exitY=0.5;exitDx=0;exitDy=0;entryX=0;entryY=0.5;entryDx=0;entryDy=0;jumpStyle=arc;jumpSize=10;strokeColor=#FFFF00;" parent="1" source="F1QgXw5RZE7JSTDuxs1F-1" target="MMl0id7Liuc3tZu3IlEb-22" edge="1">
          <mxGeometry relative="1" as="geometry">
            <Array as="points">
              <mxPoint x="160" y="435" />
              <mxPoint x="160" y="240" />
            </Array>
          </mxGeometry>
        </mxCell>
        <mxCell id="MMl0id7Liuc3tZu3IlEb-57" style="edgeStyle=orthogonalEdgeStyle;rounded=0;orthogonalLoop=1;jettySize=auto;html=1;exitX=1;exitY=0.5;exitDx=0;exitDy=0;entryX=1;entryY=0;entryDx=0;entryDy=0;jumpStyle=arc;" parent="1" source="F1QgXw5RZE7JSTDuxs1F-9" target="4LY0eMF0q3EMJJGkq3yK-8" edge="1">
          <mxGeometry relative="1" as="geometry">
            <Array as="points">
              <mxPoint x="80" y="271" />
              <mxPoint x="80" y="300" />
              <mxPoint x="180" y="300" />
              <mxPoint x="180" y="390" />
              <mxPoint x="380" y="390" />
            </Array>
          </mxGeometry>
        </mxCell>
        <mxCell id="MMl0id7Liuc3tZu3IlEb-58" style="edgeStyle=orthogonalEdgeStyle;rounded=0;orthogonalLoop=1;jettySize=auto;html=1;exitX=1;exitY=0.5;exitDx=0;exitDy=0;entryX=1;entryY=0;entryDx=0;entryDy=0;jumpStyle=arc;" parent="1" source="F1QgXw5RZE7JSTDuxs1F-9" target="4LY0eMF0q3EMJJGkq3yK-12" edge="1">
          <mxGeometry relative="1" as="geometry">
            <Array as="points">
              <mxPoint x="80" y="271" />
              <mxPoint x="80" y="300" />
              <mxPoint x="180" y="300" />
              <mxPoint x="180" y="390" />
              <mxPoint x="390" y="390" />
            </Array>
          </mxGeometry>
        </mxCell>
        <mxCell id="4LY0eMF0q3EMJJGkq3yK-52" value="" style="group" parent="1" vertex="1" connectable="0">
          <mxGeometry x="52" y="260.15" width="30" height="31.69999999999999" as="geometry" />
        </mxCell>
        <mxCell id="4LY0eMF0q3EMJJGkq3yK-53" value="8" style="text;html=1;align=center;verticalAlign=middle;whiteSpace=wrap;rounded=0;" parent="4LY0eMF0q3EMJJGkq3yK-52" vertex="1">
          <mxGeometry y="1.6999999999999886" width="30" height="30" as="geometry" />
        </mxCell>
        <mxCell id="4LY0eMF0q3EMJJGkq3yK-54" value="" style="endArrow=none;html=1;rounded=0;" parent="4LY0eMF0q3EMJJGkq3yK-52" edge="1">
          <mxGeometry width="50" height="50" relative="1" as="geometry">
            <mxPoint x="6" y="20.609999999999957" as="sourcePoint" />
            <mxPoint x="16" as="targetPoint" />
          </mxGeometry>
        </mxCell>
        <mxCell id="xY2gIMg-fqmMJkJHXbPW-1" value="tcnt" style="text;html=1;align=center;verticalAlign=middle;whiteSpace=wrap;rounded=0;" parent="1" vertex="1">
          <mxGeometry x="155" y="529.47" width="30" height="30" as="geometry" />
        </mxCell>
        <mxCell id="xY2gIMg-fqmMJkJHXbPW-2" value="" style="group" parent="1" vertex="1" connectable="0">
          <mxGeometry x="200" y="534" width="30" height="31.69999999999999" as="geometry" />
        </mxCell>
        <mxCell id="xY2gIMg-fqmMJkJHXbPW-3" value="32" style="text;html=1;align=center;verticalAlign=middle;whiteSpace=wrap;rounded=0;" parent="xY2gIMg-fqmMJkJHXbPW-2" vertex="1">
          <mxGeometry y="1.6999999999999886" width="30" height="30" as="geometry" />
        </mxCell>
        <mxCell id="xY2gIMg-fqmMJkJHXbPW-4" value="" style="endArrow=none;html=1;rounded=0;" parent="xY2gIMg-fqmMJkJHXbPW-2" edge="1">
          <mxGeometry width="50" height="50" relative="1" as="geometry">
            <mxPoint x="4" y="20.609999999999957" as="sourcePoint" />
            <mxPoint x="14" as="targetPoint" />
          </mxGeometry>
        </mxCell>
        <mxCell id="xY2gIMg-fqmMJkJHXbPW-5" style="edgeStyle=orthogonalEdgeStyle;rounded=0;orthogonalLoop=1;jettySize=auto;html=1;exitX=1;exitY=0.5;exitDx=0;exitDy=0;entryX=0.015;entryY=0.684;entryDx=0;entryDy=0;entryPerimeter=0;strokeColor=#FF8000;" parent="1" source="xY2gIMg-fqmMJkJHXbPW-1" target="4LY0eMF0q3EMJJGkq3yK-8" edge="1">
          <mxGeometry relative="1" as="geometry" />
        </mxCell>
        <mxCell id="urW1TpdPmH8jiGXUPBKo-2" style="edgeStyle=orthogonalEdgeStyle;rounded=0;orthogonalLoop=1;jettySize=auto;html=1;exitX=1;exitY=0.5;exitDx=0;exitDy=0;entryX=0.009;entryY=0.141;entryDx=0;entryDy=0;entryPerimeter=0;jumpStyle=arc;strokeColor=#FF0000;" parent="1" source="F1QgXw5RZE7JSTDuxs1F-3" target="4LY0eMF0q3EMJJGkq3yK-1" edge="1">
          <mxGeometry relative="1" as="geometry" />
        </mxCell>
        <mxCell id="urW1TpdPmH8jiGXUPBKo-3" style="edgeStyle=orthogonalEdgeStyle;rounded=0;orthogonalLoop=1;jettySize=auto;html=1;exitX=1;exitY=0.5;exitDx=0;exitDy=0;entryX=0.008;entryY=0.139;entryDx=0;entryDy=0;entryPerimeter=0;jumpStyle=arc;jumpSize=7;strokeColor=#FF0000;" parent="1" source="F1QgXw5RZE7JSTDuxs1F-3" target="4LY0eMF0q3EMJJGkq3yK-8" edge="1">
          <mxGeometry relative="1" as="geometry">
            <Array as="points">
              <mxPoint x="110" y="328" />
              <mxPoint x="110" y="477" />
            </Array>
          </mxGeometry>
        </mxCell>
        <mxCell id="4LY0eMF0q3EMJJGkq3yK-63" value="" style="group" parent="1" vertex="1" connectable="0">
          <mxGeometry x="50" y="320" width="30" height="31.69999999999999" as="geometry" />
        </mxCell>
        <mxCell id="4LY0eMF0q3EMJJGkq3yK-64" value="32" style="text;html=1;align=center;verticalAlign=middle;whiteSpace=wrap;rounded=0;" parent="4LY0eMF0q3EMJJGkq3yK-63" vertex="1">
          <mxGeometry y="1.6999999999999886" width="30" height="30" as="geometry" />
        </mxCell>
        <mxCell id="4LY0eMF0q3EMJJGkq3yK-65" value="" style="endArrow=none;html=1;rounded=0;" parent="4LY0eMF0q3EMJJGkq3yK-63" edge="1">
          <mxGeometry width="50" height="50" relative="1" as="geometry">
            <mxPoint x="4" y="20.609999999999957" as="sourcePoint" />
            <mxPoint x="14" as="targetPoint" />
          </mxGeometry>
        </mxCell>
        <mxCell id="MMl0id7Liuc3tZu3IlEb-59" style="edgeStyle=orthogonalEdgeStyle;rounded=0;orthogonalLoop=1;jettySize=auto;html=1;exitX=1;exitY=0.5;exitDx=0;exitDy=0;entryX=1;entryY=0;entryDx=0;entryDy=0;jumpStyle=arc;" parent="1" source="F1QgXw5RZE7JSTDuxs1F-9" target="4LY0eMF0q3EMJJGkq3yK-16" edge="1">
          <mxGeometry relative="1" as="geometry">
            <mxPoint x="410" y="500" as="targetPoint" />
            <Array as="points">
              <mxPoint x="80" y="271" />
              <mxPoint x="80" y="300" />
              <mxPoint x="180" y="300" />
              <mxPoint x="180" y="390" />
              <mxPoint x="413" y="390" />
            </Array>
          </mxGeometry>
        </mxCell>
        <mxCell id="MMl0id7Liuc3tZu3IlEb-56" style="edgeStyle=orthogonalEdgeStyle;rounded=0;orthogonalLoop=1;jettySize=auto;html=1;exitX=1;exitY=0.5;exitDx=0;exitDy=0;entryX=0;entryY=0.75;entryDx=0;entryDy=0;jumpStyle=arc;" parent="1" source="F1QgXw5RZE7JSTDuxs1F-9" target="MMl0id7Liuc3tZu3IlEb-22" edge="1">
          <mxGeometry relative="1" as="geometry">
            <Array as="points">
              <mxPoint x="200" y="271" />
              <mxPoint x="200" y="259" />
            </Array>
          </mxGeometry>
        </mxCell>
      </root>
    </mxGraphModel>
  </diagram>
  <diagram id="DoXXhwDdPZzILl0RqrKV" name="Time-Base">
    <mxGraphModel dx="1912" dy="1032" grid="1" gridSize="10" guides="1" tooltips="1" connect="1" arrows="1" fold="1" page="1" pageScale="1" pageWidth="850" pageHeight="1100" math="0" shadow="0">
      <root>
        <mxCell id="0" />
        <mxCell id="1" parent="0" />
        <mxCell id="lE0MF8dF0R2_mjjrT51i-1" value="" style="rounded=0;whiteSpace=wrap;html=1;dashed=1;fillColor=#FFFFCC;" parent="1" vertex="1">
          <mxGeometry x="59" y="84" width="751" height="766" as="geometry" />
        </mxCell>
        <mxCell id="z7P5VKA3RB3ijGh97ngR-2" value="Time-base" style="text;strokeColor=none;fillColor=none;html=1;fontSize=24;fontStyle=1;verticalAlign=middle;align=center;" parent="1" vertex="1">
          <mxGeometry x="59" y="84" width="141" height="40" as="geometry" />
        </mxCell>
        <mxCell id="z7P5VKA3RB3ijGh97ngR-4" value="tc_en" style="text;html=1;strokeColor=none;fillColor=none;align=center;verticalAlign=middle;whiteSpace=wrap;rounded=0;" parent="1" vertex="1">
          <mxGeometry x="20" y="229" width="39" height="20" as="geometry" />
        </mxCell>
        <mxCell id="Jk68pgLSpO7SBr-_19VU-6" style="edgeStyle=orthogonalEdgeStyle;rounded=0;orthogonalLoop=1;jettySize=auto;html=1;exitX=1;exitY=0.5;exitDx=0;exitDy=0;entryX=0;entryY=0.5;entryDx=0;entryDy=0;" edge="1" parent="1" source="z7P5VKA3RB3ijGh97ngR-5" target="z7P5VKA3RB3ijGh97ngR-14">
          <mxGeometry relative="1" as="geometry" />
        </mxCell>
        <mxCell id="z7P5VKA3RB3ijGh97ngR-5" value="register logic" style="rounded=0;whiteSpace=wrap;html=1;" parent="1" vertex="1">
          <mxGeometry x="179" y="219" width="119" height="210" as="geometry" />
        </mxCell>
        <mxCell id="z7P5VKA3RB3ijGh97ngR-6" value="" style="endArrow=classic;html=1;exitX=0.75;exitY=1;exitDx=0;exitDy=0;entryX=0;entryY=0.182;entryDx=0;entryDy=0;entryPerimeter=0;" parent="1" target="z7P5VKA3RB3ijGh97ngR-14" edge="1">
          <mxGeometry width="50" height="50" relative="1" as="geometry">
            <mxPoint x="298" y="255" as="sourcePoint" />
            <mxPoint x="348" y="255" as="targetPoint" />
          </mxGeometry>
        </mxCell>
        <mxCell id="z7P5VKA3RB3ijGh97ngR-7" value="" style="endArrow=none;html=1;" parent="1" edge="1">
          <mxGeometry width="50" height="50" relative="1" as="geometry">
            <mxPoint x="443" y="266.75" as="sourcePoint" />
            <mxPoint x="453" y="246.75" as="targetPoint" />
          </mxGeometry>
        </mxCell>
        <mxCell id="z7P5VKA3RB3ijGh97ngR-8" value="31:0" style="text;html=1;strokeColor=none;fillColor=none;align=center;verticalAlign=middle;whiteSpace=wrap;rounded=0;" parent="1" vertex="1">
          <mxGeometry x="368" y="259" width="110" height="20" as="geometry" />
        </mxCell>
        <mxCell id="z7P5VKA3RB3ijGh97ngR-10" style="edgeStyle=orthogonalEdgeStyle;rounded=0;orthogonalLoop=1;jettySize=auto;html=1;exitX=1;exitY=0.25;exitDx=0;exitDy=0;entryX=0.5;entryY=0;entryDx=0;entryDy=0;" parent="1" source="z7P5VKA3RB3ijGh97ngR-14" target="z7P5VKA3RB3ijGh97ngR-5" edge="1">
          <mxGeometry relative="1" as="geometry">
            <Array as="points">
              <mxPoint x="612" y="269" />
              <mxPoint x="612" y="169" />
              <mxPoint x="239" y="169" />
            </Array>
          </mxGeometry>
        </mxCell>
        <mxCell id="z7P5VKA3RB3ijGh97ngR-11" style="edgeStyle=orthogonalEdgeStyle;rounded=0;orthogonalLoop=1;jettySize=auto;html=1;exitX=1;exitY=0.25;exitDx=0;exitDy=0;" parent="1" source="z7P5VKA3RB3ijGh97ngR-14" edge="1">
          <mxGeometry relative="1" as="geometry">
            <mxPoint x="840" y="282" as="targetPoint" />
          </mxGeometry>
        </mxCell>
        <mxCell id="Jk68pgLSpO7SBr-_19VU-2" style="edgeStyle=orthogonalEdgeStyle;rounded=0;orthogonalLoop=1;jettySize=auto;html=1;exitX=1;exitY=0.5;exitDx=0;exitDy=0;" edge="1" parent="1" source="z7P5VKA3RB3ijGh97ngR-14">
          <mxGeometry relative="1" as="geometry">
            <mxPoint x="840" y="360" as="targetPoint" />
          </mxGeometry>
        </mxCell>
        <mxCell id="z7P5VKA3RB3ijGh97ngR-14" value="" style="rounded=0;whiteSpace=wrap;html=1;" parent="1" vertex="1">
          <mxGeometry x="473" y="216.75" width="119" height="210" as="geometry" />
        </mxCell>
        <mxCell id="z7P5VKA3RB3ijGh97ngR-15" value="" style="triangle;whiteSpace=wrap;html=1;" parent="1" vertex="1">
          <mxGeometry x="473" y="416.25" width="10" height="10" as="geometry" />
        </mxCell>
        <mxCell id="z7P5VKA3RB3ijGh97ngR-16" value="" style="ellipse;whiteSpace=wrap;html=1;aspect=fixed;" parent="1" vertex="1">
          <mxGeometry x="483" y="426.25" width="10" height="10" as="geometry" />
        </mxCell>
        <mxCell id="z7P5VKA3RB3ijGh97ngR-17" value="" style="endArrow=none;html=1;" parent="1" edge="1">
          <mxGeometry width="50" height="50" relative="1" as="geometry">
            <mxPoint x="649" y="278.75" as="sourcePoint" />
            <mxPoint x="659" y="258.75" as="targetPoint" />
          </mxGeometry>
        </mxCell>
        <mxCell id="z7P5VKA3RB3ijGh97ngR-18" value="nxt_tcnt" style="text;html=1;align=center;verticalAlign=middle;resizable=0;points=[];autosize=1;strokeColor=none;fillColor=none;" parent="1" vertex="1">
          <mxGeometry x="393" y="224" width="60" height="30" as="geometry" />
        </mxCell>
        <mxCell id="z7P5VKA3RB3ijGh97ngR-19" value="&lt;div&gt;31:0&lt;/div&gt;" style="text;html=1;strokeColor=none;fillColor=none;align=center;verticalAlign=middle;whiteSpace=wrap;rounded=0;" parent="1" vertex="1">
          <mxGeometry x="629" y="274.75" width="35" height="25" as="geometry" />
        </mxCell>
        <mxCell id="z7P5VKA3RB3ijGh97ngR-21" value="D" style="text;html=1;align=center;verticalAlign=middle;resizable=0;points=[];autosize=1;strokeColor=none;fillColor=none;" parent="1" vertex="1">
          <mxGeometry x="473" y="246.75" width="20" height="20" as="geometry" />
        </mxCell>
        <mxCell id="z7P5VKA3RB3ijGh97ngR-22" value="Q" style="text;html=1;align=center;verticalAlign=middle;resizable=0;points=[];autosize=1;strokeColor=none;fillColor=none;" parent="1" vertex="1">
          <mxGeometry x="572" y="262.75" width="20" height="20" as="geometry" />
        </mxCell>
        <mxCell id="z7P5VKA3RB3ijGh97ngR-23" value="tcnt" style="text;html=1;align=center;verticalAlign=middle;resizable=0;points=[];autosize=1;strokeColor=none;fillColor=none;" parent="1" vertex="1">
          <mxGeometry x="383" y="144" width="40" height="30" as="geometry" />
        </mxCell>
        <mxCell id="z7P5VKA3RB3ijGh97ngR-25" style="edgeStyle=orthogonalEdgeStyle;rounded=0;orthogonalLoop=1;jettySize=auto;html=1;exitX=0.5;exitY=1;exitDx=0;exitDy=0;entryX=0;entryY=0.5;entryDx=0;entryDy=0;fontSize=20;" parent="1" source="z7P5VKA3RB3ijGh97ngR-26" target="z7P5VKA3RB3ijGh97ngR-5" edge="1">
          <mxGeometry relative="1" as="geometry" />
        </mxCell>
        <mxCell id="z7P5VKA3RB3ijGh97ngR-26" value="tc_rst" style="text;html=1;strokeColor=none;fillColor=none;align=center;verticalAlign=middle;whiteSpace=wrap;rounded=0;" parent="1" vertex="1">
          <mxGeometry x="15" y="276" width="49" height="20" as="geometry" />
        </mxCell>
        <mxCell id="z7P5VKA3RB3ijGh97ngR-27" style="edgeStyle=orthogonalEdgeStyle;rounded=0;orthogonalLoop=1;jettySize=auto;html=1;exitX=1;exitY=0.5;exitDx=0;exitDy=0;entryX=0;entryY=0.75;entryDx=0;entryDy=0;" parent="1" source="z7P5VKA3RB3ijGh97ngR-28" target="z7P5VKA3RB3ijGh97ngR-5" edge="1">
          <mxGeometry relative="1" as="geometry" />
        </mxCell>
        <mxCell id="z7P5VKA3RB3ijGh97ngR-28" value="tarr" style="text;html=1;strokeColor=none;fillColor=none;align=center;verticalAlign=middle;whiteSpace=wrap;rounded=0;" parent="1" vertex="1">
          <mxGeometry x="25.5" y="349" width="29" height="20" as="geometry" />
        </mxCell>
        <mxCell id="z7P5VKA3RB3ijGh97ngR-34" value="TCNT" style="text;strokeColor=none;fillColor=none;html=1;fontSize=24;fontStyle=1;verticalAlign=middle;align=center;" parent="1" vertex="1">
          <mxGeometry x="592" y="129" width="220" height="40" as="geometry" />
        </mxCell>
        <mxCell id="z7P5VKA3RB3ijGh97ngR-37" value="register logic" style="rounded=0;whiteSpace=wrap;html=1;" parent="1" vertex="1">
          <mxGeometry x="179" y="600" width="119" height="210" as="geometry" />
        </mxCell>
        <mxCell id="z7P5VKA3RB3ijGh97ngR-38" value="" style="endArrow=classic;html=1;exitX=0.75;exitY=1;exitDx=0;exitDy=0;entryX=0;entryY=0.182;entryDx=0;entryDy=0;entryPerimeter=0;" parent="1" target="z7P5VKA3RB3ijGh97ngR-43" edge="1">
          <mxGeometry width="50" height="50" relative="1" as="geometry">
            <mxPoint x="298" y="636" as="sourcePoint" />
            <mxPoint x="348" y="636" as="targetPoint" />
          </mxGeometry>
        </mxCell>
        <mxCell id="z7P5VKA3RB3ijGh97ngR-39" value="" style="endArrow=none;html=1;" parent="1" edge="1">
          <mxGeometry width="50" height="50" relative="1" as="geometry">
            <mxPoint x="443" y="647.75" as="sourcePoint" />
            <mxPoint x="453" y="627.75" as="targetPoint" />
          </mxGeometry>
        </mxCell>
        <mxCell id="z7P5VKA3RB3ijGh97ngR-40" value="31:0" style="text;html=1;strokeColor=none;fillColor=none;align=center;verticalAlign=middle;whiteSpace=wrap;rounded=0;" parent="1" vertex="1">
          <mxGeometry x="368" y="640" width="110" height="20" as="geometry" />
        </mxCell>
        <mxCell id="z7P5VKA3RB3ijGh97ngR-41" style="edgeStyle=orthogonalEdgeStyle;rounded=0;orthogonalLoop=1;jettySize=auto;html=1;exitX=1;exitY=0.25;exitDx=0;exitDy=0;entryX=0.5;entryY=0;entryDx=0;entryDy=0;" parent="1" source="z7P5VKA3RB3ijGh97ngR-43" target="z7P5VKA3RB3ijGh97ngR-37" edge="1">
          <mxGeometry relative="1" as="geometry">
            <Array as="points">
              <mxPoint x="612" y="650" />
              <mxPoint x="612" y="550" />
              <mxPoint x="239" y="550" />
            </Array>
          </mxGeometry>
        </mxCell>
        <mxCell id="z7P5VKA3RB3ijGh97ngR-43" value="" style="rounded=0;whiteSpace=wrap;html=1;" parent="1" vertex="1">
          <mxGeometry x="473" y="597.75" width="119" height="210" as="geometry" />
        </mxCell>
        <mxCell id="z7P5VKA3RB3ijGh97ngR-44" value="" style="triangle;whiteSpace=wrap;html=1;" parent="1" vertex="1">
          <mxGeometry x="473" y="797.25" width="10" height="10" as="geometry" />
        </mxCell>
        <mxCell id="z7P5VKA3RB3ijGh97ngR-45" value="" style="ellipse;whiteSpace=wrap;html=1;aspect=fixed;" parent="1" vertex="1">
          <mxGeometry x="483" y="807.25" width="10" height="10" as="geometry" />
        </mxCell>
        <mxCell id="z7P5VKA3RB3ijGh97ngR-47" value="nxt_psc_cnt" style="text;html=1;align=center;verticalAlign=middle;resizable=0;points=[];autosize=1;strokeColor=none;fillColor=none;" parent="1" vertex="1">
          <mxGeometry x="378" y="605" width="90" height="30" as="geometry" />
        </mxCell>
        <mxCell id="z7P5VKA3RB3ijGh97ngR-49" value="D" style="text;html=1;align=center;verticalAlign=middle;resizable=0;points=[];autosize=1;strokeColor=none;fillColor=none;" parent="1" vertex="1">
          <mxGeometry x="473" y="627.75" width="20" height="20" as="geometry" />
        </mxCell>
        <mxCell id="z7P5VKA3RB3ijGh97ngR-50" value="Q" style="text;html=1;align=center;verticalAlign=middle;resizable=0;points=[];autosize=1;strokeColor=none;fillColor=none;" parent="1" vertex="1">
          <mxGeometry x="560" y="646" width="20" height="20" as="geometry" />
        </mxCell>
        <mxCell id="z7P5VKA3RB3ijGh97ngR-51" value="psc_cnt" style="text;html=1;align=center;verticalAlign=middle;resizable=0;points=[];autosize=1;strokeColor=none;fillColor=none;" parent="1" vertex="1">
          <mxGeometry x="368" y="525" width="70" height="30" as="geometry" />
        </mxCell>
        <mxCell id="z7P5VKA3RB3ijGh97ngR-56" value="Prescaler" style="text;strokeColor=none;fillColor=none;html=1;fontSize=24;fontStyle=1;verticalAlign=middle;align=center;" parent="1" vertex="1">
          <mxGeometry x="592" y="510" width="220" height="40" as="geometry" />
        </mxCell>
        <mxCell id="z7P5VKA3RB3ijGh97ngR-57" value="" style="endArrow=none;html=1;" parent="1" edge="1">
          <mxGeometry width="50" height="50" relative="1" as="geometry">
            <mxPoint x="146.5" y="650" as="sourcePoint" />
            <mxPoint x="156.5" y="630" as="targetPoint" />
          </mxGeometry>
        </mxCell>
        <mxCell id="z7P5VKA3RB3ijGh97ngR-58" value="&lt;div&gt;31:0&lt;/div&gt;" style="text;html=1;strokeColor=none;fillColor=none;align=center;verticalAlign=middle;whiteSpace=wrap;rounded=0;" parent="1" vertex="1">
          <mxGeometry x="126.5" y="646" width="35" height="25" as="geometry" />
        </mxCell>
        <mxCell id="z7P5VKA3RB3ijGh97ngR-61" value="" style="endArrow=none;html=1;" parent="1" edge="1">
          <mxGeometry width="50" height="50" relative="1" as="geometry">
            <mxPoint x="147.5" y="423" as="sourcePoint" />
            <mxPoint x="157.5" y="403" as="targetPoint" />
          </mxGeometry>
        </mxCell>
        <mxCell id="z7P5VKA3RB3ijGh97ngR-62" value="&lt;div&gt;31:0&lt;/div&gt;" style="text;html=1;strokeColor=none;fillColor=none;align=center;verticalAlign=middle;whiteSpace=wrap;rounded=0;" parent="1" vertex="1">
          <mxGeometry x="127.5" y="419" width="35" height="25" as="geometry" />
        </mxCell>
        <mxCell id="tTROXcHxd5RjfkV362o5-2" value="tpsc" style="text;html=1;strokeColor=none;fillColor=none;align=center;verticalAlign=middle;whiteSpace=wrap;rounded=0;" parent="1" vertex="1">
          <mxGeometry x="25.5" y="389" width="22.5" height="20" as="geometry" />
        </mxCell>
        <mxCell id="tTROXcHxd5RjfkV362o5-3" value="" style="endArrow=none;html=1;" parent="1" edge="1">
          <mxGeometry width="50" height="50" relative="1" as="geometry">
            <mxPoint x="204.5" y="490" as="sourcePoint" />
            <mxPoint x="214.5" y="470" as="targetPoint" />
          </mxGeometry>
        </mxCell>
        <mxCell id="tTROXcHxd5RjfkV362o5-4" value="&lt;div&gt;31:0&lt;/div&gt;" style="text;html=1;strokeColor=none;fillColor=none;align=center;verticalAlign=middle;whiteSpace=wrap;rounded=0;" parent="1" vertex="1">
          <mxGeometry x="184.5" y="486" width="35" height="25" as="geometry" />
        </mxCell>
        <mxCell id="Jk68pgLSpO7SBr-_19VU-1" value="tcnt" style="text;html=1;align=center;verticalAlign=middle;resizable=0;points=[];autosize=1;strokeColor=none;fillColor=none;" vertex="1" parent="1">
          <mxGeometry x="770" y="259" width="40" height="30" as="geometry" />
        </mxCell>
        <mxCell id="Jk68pgLSpO7SBr-_19VU-3" value="tc_irq" style="text;html=1;align=center;verticalAlign=middle;resizable=0;points=[];autosize=1;strokeColor=none;fillColor=none;" vertex="1" parent="1">
          <mxGeometry x="745" y="339" width="50" height="30" as="geometry" />
        </mxCell>
        <mxCell id="Jk68pgLSpO7SBr-_19VU-7" value="nxt_tc_irq" style="text;html=1;align=center;verticalAlign=middle;resizable=0;points=[];autosize=1;strokeColor=none;fillColor=none;" vertex="1" parent="1">
          <mxGeometry x="360" y="296" width="80" height="30" as="geometry" />
        </mxCell>
        <mxCell id="cQk7BwNoma9hS33oiI99-3" style="edgeStyle=orthogonalEdgeStyle;rounded=0;orthogonalLoop=1;jettySize=auto;html=1;exitX=1;exitY=0.5;exitDx=0;exitDy=0;entryX=0;entryY=0;entryDx=0;entryDy=0;" edge="1" parent="1" source="cQk7BwNoma9hS33oiI99-2" target="z7P5VKA3RB3ijGh97ngR-5">
          <mxGeometry relative="1" as="geometry">
            <Array as="points">
              <mxPoint x="179" y="209" />
            </Array>
          </mxGeometry>
        </mxCell>
        <mxCell id="cQk7BwNoma9hS33oiI99-2" value="tc_irq_en" style="text;html=1;strokeColor=none;fillColor=none;align=center;verticalAlign=middle;whiteSpace=wrap;rounded=0;" vertex="1" parent="1">
          <mxGeometry y="190" width="80" height="20" as="geometry" />
        </mxCell>
        <mxCell id="yCUTK_qSxxUPJTaCRKGS-1" style="edgeStyle=orthogonalEdgeStyle;rounded=0;orthogonalLoop=1;jettySize=auto;html=1;exitX=1;exitY=0.5;exitDx=0;exitDy=0;entryX=0.021;entryY=0.194;entryDx=0;entryDy=0;entryPerimeter=0;" edge="1" parent="1" source="z7P5VKA3RB3ijGh97ngR-4" target="z7P5VKA3RB3ijGh97ngR-5">
          <mxGeometry relative="1" as="geometry" />
        </mxCell>
        <mxCell id="yCUTK_qSxxUPJTaCRKGS-2" style="edgeStyle=orthogonalEdgeStyle;rounded=0;orthogonalLoop=1;jettySize=auto;html=1;exitX=1;exitY=0.25;exitDx=0;exitDy=0;entryX=0.25;entryY=1;entryDx=0;entryDy=0;" edge="1" parent="1" source="z7P5VKA3RB3ijGh97ngR-43" target="z7P5VKA3RB3ijGh97ngR-5">
          <mxGeometry relative="1" as="geometry">
            <Array as="points">
              <mxPoint x="612" y="650" />
              <mxPoint x="612" y="550" />
              <mxPoint x="209" y="550" />
              <mxPoint x="209" y="480" />
            </Array>
          </mxGeometry>
        </mxCell>
        <mxCell id="D01hYCtxi_P-CPutKbaK-1" style="edgeStyle=orthogonalEdgeStyle;rounded=0;orthogonalLoop=1;jettySize=auto;html=1;exitX=1;exitY=0.5;exitDx=0;exitDy=0;entryX=0.008;entryY=0.924;entryDx=0;entryDy=0;entryPerimeter=0;" edge="1" parent="1" source="tTROXcHxd5RjfkV362o5-2" target="z7P5VKA3RB3ijGh97ngR-5">
          <mxGeometry relative="1" as="geometry" />
        </mxCell>
        <mxCell id="D01hYCtxi_P-CPutKbaK-2" style="edgeStyle=orthogonalEdgeStyle;rounded=0;orthogonalLoop=1;jettySize=auto;html=1;exitX=1;exitY=0.5;exitDx=0;exitDy=0;entryX=0;entryY=0.195;entryDx=0;entryDy=0;entryPerimeter=0;" edge="1" parent="1" source="tTROXcHxd5RjfkV362o5-2" target="z7P5VKA3RB3ijGh97ngR-37">
          <mxGeometry relative="1" as="geometry" />
        </mxCell>
      </root>
    </mxGraphModel>
  </diagram>
  <diagram id="_9BlYTypKvhHB4Xugizl" name="Capture-Compare Channel">
    <mxGraphModel dx="2206" dy="1191" grid="1" gridSize="10" guides="1" tooltips="1" connect="1" arrows="1" fold="1" page="1" pageScale="1" pageWidth="850" pageHeight="1100" math="0" shadow="0">
      <root>
        <mxCell id="0" />
        <mxCell id="1" parent="0" />
        <mxCell id="1pQ9QoYvtv841KNahhwR-28" value="" style="rounded=0;whiteSpace=wrap;html=1;dashed=1;fillColor=#FFCCCC;" vertex="1" parent="1">
          <mxGeometry x="110" y="35" width="640" height="1030" as="geometry" />
        </mxCell>
        <mxCell id="EU3yeByi70ORGdQOXck4-3" value="" style="rounded=1;whiteSpace=wrap;html=1;fillColor=#CCFFCC;dashed=1;" vertex="1" parent="1">
          <mxGeometry x="180" y="405" width="450" height="350" as="geometry" />
        </mxCell>
        <mxCell id="EU3yeByi70ORGdQOXck4-2" value="" style="rounded=1;whiteSpace=wrap;html=1;dashed=1;fillColor=#E5CCFF;" vertex="1" parent="1">
          <mxGeometry x="190" y="765" width="480" height="290" as="geometry" />
        </mxCell>
        <mxCell id="KS2lWQUbTWkgOvlsbiRV-21" style="edgeStyle=orthogonalEdgeStyle;rounded=0;orthogonalLoop=1;jettySize=auto;html=1;exitX=1;exitY=0.5;exitDx=0;exitDy=0;entryX=0;entryY=0;entryDx=0;entryDy=0;jumpStyle=arc;jumpSize=7;" edge="1" parent="1" source="FzRiIfpy8C0L5nEiF2S4-2" target="lW7AvcWmKujEDrgc8jRX-4">
          <mxGeometry relative="1" as="geometry">
            <Array as="points">
              <mxPoint x="180" y="349" />
              <mxPoint x="180" y="453" />
            </Array>
          </mxGeometry>
        </mxCell>
        <mxCell id="KS2lWQUbTWkgOvlsbiRV-23" style="edgeStyle=orthogonalEdgeStyle;rounded=0;orthogonalLoop=1;jettySize=auto;html=1;exitX=1;exitY=0.5;exitDx=0;exitDy=0;entryX=0.007;entryY=0.113;entryDx=0;entryDy=0;entryPerimeter=0;jumpStyle=arc;" edge="1" parent="1" source="3TzUZ2fMZYBfheMCulta-8" target="lW7AvcWmKujEDrgc8jRX-4">
          <mxGeometry relative="1" as="geometry">
            <Array as="points">
              <mxPoint x="150" y="296" />
              <mxPoint x="150" y="477" />
            </Array>
          </mxGeometry>
        </mxCell>
        <mxCell id="KS2lWQUbTWkgOvlsbiRV-24" style="edgeStyle=orthogonalEdgeStyle;rounded=0;orthogonalLoop=1;jettySize=auto;html=1;exitX=1;exitY=0.5;exitDx=0;exitDy=0;entryX=0;entryY=0.25;entryDx=0;entryDy=0;jumpStyle=arc;" edge="1" parent="1" source="3TzUZ2fMZYBfheMCulta-7" target="lW7AvcWmKujEDrgc8jRX-4">
          <mxGeometry relative="1" as="geometry">
            <Array as="points">
              <mxPoint x="130" y="246" />
              <mxPoint x="130" y="505" />
              <mxPoint x="285" y="505" />
            </Array>
          </mxGeometry>
        </mxCell>
        <mxCell id="1a2yClQbiCNtIVJOz1LQ-1" value="tarr" style="text;html=1;strokeColor=none;fillColor=none;align=center;verticalAlign=middle;whiteSpace=wrap;rounded=0;" parent="1" vertex="1">
          <mxGeometry x="55.5" y="645.25" width="29" height="20" as="geometry" />
        </mxCell>
        <mxCell id="KS2lWQUbTWkgOvlsbiRV-20" style="edgeStyle=orthogonalEdgeStyle;rounded=0;orthogonalLoop=1;jettySize=auto;html=1;exitX=1;exitY=0.5;exitDx=0;exitDy=0;" edge="1" parent="1" source="1a2yClQbiCNtIVJOz1LQ-3">
          <mxGeometry relative="1" as="geometry">
            <mxPoint x="285" y="610" as="targetPoint" />
            <Array as="points">
              <mxPoint x="84" y="610" />
            </Array>
          </mxGeometry>
        </mxCell>
        <mxCell id="1a2yClQbiCNtIVJOz1LQ-3" value="tcnt" style="text;html=1;strokeColor=none;fillColor=none;align=center;verticalAlign=middle;whiteSpace=wrap;rounded=0;" parent="1" vertex="1">
          <mxGeometry x="55.5" y="600" width="29" height="20" as="geometry" />
        </mxCell>
        <mxCell id="KS2lWQUbTWkgOvlsbiRV-5" style="edgeStyle=orthogonalEdgeStyle;rounded=0;orthogonalLoop=1;jettySize=auto;html=1;exitX=1;exitY=0.5;exitDx=0;exitDy=0;entryX=0;entryY=0.5;entryDx=0;entryDy=0;" edge="1" parent="1" source="FzRiIfpy8C0L5nEiF2S4-1" target="KS2lWQUbTWkgOvlsbiRV-4">
          <mxGeometry relative="1" as="geometry" />
        </mxCell>
        <mxCell id="FzRiIfpy8C0L5nEiF2S4-1" value="t_in" style="text;html=1;align=center;verticalAlign=middle;whiteSpace=wrap;rounded=0;" parent="1" vertex="1">
          <mxGeometry x="45" y="700" width="30" height="30" as="geometry" />
        </mxCell>
        <mxCell id="FzRiIfpy8C0L5nEiF2S4-2" value="strobe_expanded" style="text;html=1;align=center;verticalAlign=middle;whiteSpace=wrap;rounded=0;" parent="1" vertex="1">
          <mxGeometry x="10" y="333.87" width="100" height="30" as="geometry" />
        </mxCell>
        <mxCell id="FzRiIfpy8C0L5nEiF2S4-3" value="reg_select" style="text;html=1;align=center;verticalAlign=middle;whiteSpace=wrap;rounded=0;" parent="1" vertex="1">
          <mxGeometry x="20" y="525" width="100" height="30" as="geometry" />
        </mxCell>
        <mxCell id="3TzUZ2fMZYBfheMCulta-1" value="tccmr" style="text;html=1;align=center;verticalAlign=middle;whiteSpace=wrap;rounded=0;" parent="1" vertex="1">
          <mxGeometry x="800" y="237.5" width="30" height="30" as="geometry" />
        </mxCell>
        <mxCell id="3TzUZ2fMZYBfheMCulta-2" value="tccr" style="text;html=1;align=center;verticalAlign=middle;whiteSpace=wrap;rounded=0;" parent="1" vertex="1">
          <mxGeometry x="800" y="282.5" width="30" height="30" as="geometry" />
        </mxCell>
        <mxCell id="3TzUZ2fMZYBfheMCulta-3" value="t_out" style="text;html=1;align=center;verticalAlign=middle;whiteSpace=wrap;rounded=0;" parent="1" vertex="1">
          <mxGeometry x="800" y="762" width="30" height="30" as="geometry" />
        </mxCell>
        <mxCell id="3TzUZ2fMZYBfheMCulta-4" value="error" style="text;html=1;align=center;verticalAlign=middle;whiteSpace=wrap;rounded=0;" parent="1" vertex="1">
          <mxGeometry x="800" y="620.25" width="30" height="30" as="geometry" />
        </mxCell>
        <mxCell id="3TzUZ2fMZYBfheMCulta-6" value="t_oe" style="text;html=1;align=center;verticalAlign=middle;whiteSpace=wrap;rounded=0;" parent="1" vertex="1">
          <mxGeometry x="800" y="800" width="30" height="30" as="geometry" />
        </mxCell>
        <mxCell id="3TzUZ2fMZYBfheMCulta-7" value="wen" style="text;html=1;align=center;verticalAlign=middle;whiteSpace=wrap;rounded=0;" parent="1" vertex="1">
          <mxGeometry x="35" y="231.12" width="30" height="30" as="geometry" />
        </mxCell>
        <mxCell id="lW7AvcWmKujEDrgc8jRX-2" style="edgeStyle=orthogonalEdgeStyle;rounded=0;orthogonalLoop=1;jettySize=auto;html=1;exitX=1;exitY=0.5;exitDx=0;exitDy=0;entryX=0;entryY=0.25;entryDx=0;entryDy=0;" edge="1" parent="1" source="3TzUZ2fMZYBfheMCulta-8" target="fHg6_ne1IxVIKJh7QP7n-2">
          <mxGeometry relative="1" as="geometry">
            <Array as="points">
              <mxPoint x="150" y="296" />
              <mxPoint x="150" y="173" />
            </Array>
          </mxGeometry>
        </mxCell>
        <mxCell id="3TzUZ2fMZYBfheMCulta-8" value="wdata" style="text;html=1;align=center;verticalAlign=middle;whiteSpace=wrap;rounded=0;" parent="1" vertex="1">
          <mxGeometry x="35" y="281.12" width="30" height="30" as="geometry" />
        </mxCell>
        <mxCell id="KS2lWQUbTWkgOvlsbiRV-10" style="edgeStyle=orthogonalEdgeStyle;rounded=0;orthogonalLoop=1;jettySize=auto;html=1;exitX=1;exitY=0.25;exitDx=0;exitDy=0;" edge="1" parent="1" source="fHg6_ne1IxVIKJh7QP7n-2" target="fHg6_ne1IxVIKJh7QP7n-15">
          <mxGeometry relative="1" as="geometry">
            <Array as="points">
              <mxPoint x="409" y="158" />
            </Array>
          </mxGeometry>
        </mxCell>
        <mxCell id="fHg6_ne1IxVIKJh7QP7n-2" value="register logic" style="rounded=0;whiteSpace=wrap;html=1;" parent="1" vertex="1">
          <mxGeometry x="290" y="120" width="119" height="210" as="geometry" />
        </mxCell>
        <mxCell id="fHg6_ne1IxVIKJh7QP7n-4" value="" style="endArrow=none;html=1;" parent="1" edge="1">
          <mxGeometry width="50" height="50" relative="1" as="geometry">
            <mxPoint x="474" y="167.75" as="sourcePoint" />
            <mxPoint x="484" y="147.75" as="targetPoint" />
          </mxGeometry>
        </mxCell>
        <mxCell id="fHg6_ne1IxVIKJh7QP7n-5" value="31:0" style="text;html=1;strokeColor=none;fillColor=none;align=center;verticalAlign=middle;whiteSpace=wrap;rounded=0;" parent="1" vertex="1">
          <mxGeometry x="464" y="163" width="18" height="20" as="geometry" />
        </mxCell>
        <mxCell id="fHg6_ne1IxVIKJh7QP7n-6" style="edgeStyle=orthogonalEdgeStyle;rounded=0;orthogonalLoop=1;jettySize=auto;html=1;exitX=1;exitY=0.25;exitDx=0;exitDy=0;entryX=0.5;entryY=0;entryDx=0;entryDy=0;" parent="1" edge="1">
          <mxGeometry relative="1" as="geometry">
            <Array as="points">
              <mxPoint x="711" y="170" />
              <mxPoint x="711" y="70" />
              <mxPoint x="351" y="70" />
            </Array>
            <mxPoint x="624" y="170.25" as="sourcePoint" />
            <mxPoint x="350.5" y="120" as="targetPoint" />
          </mxGeometry>
        </mxCell>
        <mxCell id="KS2lWQUbTWkgOvlsbiRV-16" style="edgeStyle=orthogonalEdgeStyle;rounded=0;orthogonalLoop=1;jettySize=auto;html=1;exitX=1;exitY=0.25;exitDx=0;exitDy=0;entryX=0.25;entryY=0;entryDx=0;entryDy=0;" edge="1" parent="1" source="fHg6_ne1IxVIKJh7QP7n-9" target="lW7AvcWmKujEDrgc8jRX-4">
          <mxGeometry relative="1" as="geometry">
            <Array as="points">
              <mxPoint x="643" y="170" />
              <mxPoint x="643" y="375" />
              <mxPoint x="315" y="375" />
            </Array>
          </mxGeometry>
        </mxCell>
        <mxCell id="KS2lWQUbTWkgOvlsbiRV-26" style="edgeStyle=orthogonalEdgeStyle;rounded=0;orthogonalLoop=1;jettySize=auto;html=1;exitX=1;exitY=0.25;exitDx=0;exitDy=0;entryX=0;entryY=0.5;entryDx=0;entryDy=0;" edge="1" parent="1" source="fHg6_ne1IxVIKJh7QP7n-9" target="3TzUZ2fMZYBfheMCulta-1">
          <mxGeometry relative="1" as="geometry" />
        </mxCell>
        <mxCell id="fHg6_ne1IxVIKJh7QP7n-9" value="Capture-Compare mode register" style="rounded=0;whiteSpace=wrap;html=1;" parent="1" vertex="1">
          <mxGeometry x="504" y="117.75" width="119" height="210" as="geometry" />
        </mxCell>
        <mxCell id="fHg6_ne1IxVIKJh7QP7n-10" value="" style="triangle;whiteSpace=wrap;html=1;" parent="1" vertex="1">
          <mxGeometry x="504" y="317.25" width="10" height="10" as="geometry" />
        </mxCell>
        <mxCell id="fHg6_ne1IxVIKJh7QP7n-11" value="" style="ellipse;whiteSpace=wrap;html=1;aspect=fixed;" parent="1" vertex="1">
          <mxGeometry x="514" y="327.25" width="10" height="10" as="geometry" />
        </mxCell>
        <mxCell id="fHg6_ne1IxVIKJh7QP7n-12" value="" style="endArrow=none;html=1;" parent="1" edge="1">
          <mxGeometry width="50" height="50" relative="1" as="geometry">
            <mxPoint x="680" y="179.75" as="sourcePoint" />
            <mxPoint x="690" y="159.75" as="targetPoint" />
          </mxGeometry>
        </mxCell>
        <mxCell id="fHg6_ne1IxVIKJh7QP7n-13" value="nxt_tccmr" style="text;html=1;align=center;verticalAlign=middle;resizable=0;points=[];autosize=1;strokeColor=none;fillColor=none;" parent="1" vertex="1">
          <mxGeometry x="414" y="125" width="80" height="30" as="geometry" />
        </mxCell>
        <mxCell id="fHg6_ne1IxVIKJh7QP7n-14" value="&lt;div&gt;31:0&lt;/div&gt;" style="text;html=1;strokeColor=none;fillColor=none;align=center;verticalAlign=middle;whiteSpace=wrap;rounded=0;" parent="1" vertex="1">
          <mxGeometry x="660" y="175.75" width="35" height="25" as="geometry" />
        </mxCell>
        <mxCell id="fHg6_ne1IxVIKJh7QP7n-15" value="D" style="text;html=1;align=center;verticalAlign=middle;resizable=0;points=[];autosize=1;strokeColor=none;fillColor=none;" parent="1" vertex="1">
          <mxGeometry x="504" y="147.75" width="20" height="20" as="geometry" />
        </mxCell>
        <mxCell id="fHg6_ne1IxVIKJh7QP7n-16" value="Q" style="text;html=1;align=center;verticalAlign=middle;resizable=0;points=[];autosize=1;strokeColor=none;fillColor=none;" parent="1" vertex="1">
          <mxGeometry x="603" y="163" width="20" height="20" as="geometry" />
        </mxCell>
        <mxCell id="fHg6_ne1IxVIKJh7QP7n-17" value="tccmr" style="text;html=1;align=center;verticalAlign=middle;resizable=0;points=[];autosize=1;strokeColor=none;fillColor=none;" parent="1" vertex="1">
          <mxGeometry x="409" y="45" width="50" height="30" as="geometry" />
        </mxCell>
        <mxCell id="lW7AvcWmKujEDrgc8jRX-1" style="edgeStyle=orthogonalEdgeStyle;rounded=0;orthogonalLoop=1;jettySize=auto;html=1;exitX=1;exitY=0.5;exitDx=0;exitDy=0;entryX=0.008;entryY=0.086;entryDx=0;entryDy=0;entryPerimeter=0;" edge="1" parent="1" source="3TzUZ2fMZYBfheMCulta-7" target="fHg6_ne1IxVIKJh7QP7n-2">
          <mxGeometry relative="1" as="geometry">
            <Array as="points">
              <mxPoint x="130" y="246" />
              <mxPoint x="130" y="138" />
            </Array>
          </mxGeometry>
        </mxCell>
        <mxCell id="lW7AvcWmKujEDrgc8jRX-21" style="edgeStyle=orthogonalEdgeStyle;rounded=0;orthogonalLoop=1;jettySize=auto;html=1;exitX=1;exitY=0.5;exitDx=0;exitDy=0;entryX=0;entryY=0.5;entryDx=0;entryDy=0;" edge="1" parent="1" source="lW7AvcWmKujEDrgc8jRX-4" target="lW7AvcWmKujEDrgc8jRX-9">
          <mxGeometry relative="1" as="geometry" />
        </mxCell>
        <mxCell id="KS2lWQUbTWkgOvlsbiRV-30" style="edgeStyle=orthogonalEdgeStyle;rounded=0;orthogonalLoop=1;jettySize=auto;html=1;exitX=1;exitY=0.75;exitDx=0;exitDy=0;entryX=0;entryY=0.5;entryDx=0;entryDy=0;" edge="1" parent="1" source="lW7AvcWmKujEDrgc8jRX-4" target="3TzUZ2fMZYBfheMCulta-4">
          <mxGeometry relative="1" as="geometry">
            <Array as="points">
              <mxPoint x="470" y="610" />
              <mxPoint x="470" y="715" />
              <mxPoint x="740" y="715" />
              <mxPoint x="740" y="635" />
            </Array>
          </mxGeometry>
        </mxCell>
        <mxCell id="lW7AvcWmKujEDrgc8jRX-4" value="register logic" style="rounded=0;whiteSpace=wrap;html=1;" vertex="1" parent="1">
          <mxGeometry x="285" y="453" width="119" height="210" as="geometry" />
        </mxCell>
        <mxCell id="lW7AvcWmKujEDrgc8jRX-5" value="" style="endArrow=classic;html=1;entryX=0;entryY=0.182;entryDx=0;entryDy=0;entryPerimeter=0;" edge="1" parent="1" target="lW7AvcWmKujEDrgc8jRX-9">
          <mxGeometry width="50" height="50" relative="1" as="geometry">
            <mxPoint x="405" y="489" as="sourcePoint" />
            <mxPoint x="374" y="489" as="targetPoint" />
          </mxGeometry>
        </mxCell>
        <mxCell id="lW7AvcWmKujEDrgc8jRX-6" value="" style="endArrow=none;html=1;" edge="1" parent="1">
          <mxGeometry width="50" height="50" relative="1" as="geometry">
            <mxPoint x="469" y="500.75" as="sourcePoint" />
            <mxPoint x="479" y="480.75" as="targetPoint" />
          </mxGeometry>
        </mxCell>
        <mxCell id="lW7AvcWmKujEDrgc8jRX-7" value="31:0" style="text;html=1;strokeColor=none;fillColor=none;align=center;verticalAlign=middle;whiteSpace=wrap;rounded=0;" vertex="1" parent="1">
          <mxGeometry x="394" y="493" width="110" height="20" as="geometry" />
        </mxCell>
        <mxCell id="lW7AvcWmKujEDrgc8jRX-8" style="edgeStyle=orthogonalEdgeStyle;rounded=0;orthogonalLoop=1;jettySize=auto;html=1;exitX=1;exitY=0.25;exitDx=0;exitDy=0;entryX=0.5;entryY=0;entryDx=0;entryDy=0;" edge="1" parent="1">
          <mxGeometry relative="1" as="geometry">
            <Array as="points">
              <mxPoint x="709" y="503" />
              <mxPoint x="709" y="427" />
              <mxPoint x="344" y="427" />
            </Array>
            <mxPoint x="617" y="503.25" as="sourcePoint" />
            <mxPoint x="343.50000000000006" y="453" as="targetPoint" />
          </mxGeometry>
        </mxCell>
        <mxCell id="KS2lWQUbTWkgOvlsbiRV-2" style="edgeStyle=orthogonalEdgeStyle;rounded=0;orthogonalLoop=1;jettySize=auto;html=1;exitX=1;exitY=0.5;exitDx=0;exitDy=0;" edge="1" parent="1" source="lW7AvcWmKujEDrgc8jRX-9" target="KS2lWQUbTWkgOvlsbiRV-3">
          <mxGeometry relative="1" as="geometry">
            <mxPoint x="710" y="556" as="targetPoint" />
          </mxGeometry>
        </mxCell>
        <mxCell id="KS2lWQUbTWkgOvlsbiRV-27" style="edgeStyle=orthogonalEdgeStyle;rounded=0;orthogonalLoop=1;jettySize=auto;html=1;exitX=1;exitY=0.25;exitDx=0;exitDy=0;entryX=0;entryY=0.5;entryDx=0;entryDy=0;" edge="1" parent="1" source="lW7AvcWmKujEDrgc8jRX-9" target="3TzUZ2fMZYBfheMCulta-2">
          <mxGeometry relative="1" as="geometry">
            <mxPoint x="770" y="385" as="targetPoint" />
          </mxGeometry>
        </mxCell>
        <mxCell id="lW7AvcWmKujEDrgc8jRX-9" value="" style="rounded=0;whiteSpace=wrap;html=1;" vertex="1" parent="1">
          <mxGeometry x="499" y="450.75" width="119" height="210" as="geometry" />
        </mxCell>
        <mxCell id="lW7AvcWmKujEDrgc8jRX-10" value="" style="triangle;whiteSpace=wrap;html=1;" vertex="1" parent="1">
          <mxGeometry x="499" y="650.25" width="10" height="10" as="geometry" />
        </mxCell>
        <mxCell id="lW7AvcWmKujEDrgc8jRX-11" value="" style="ellipse;whiteSpace=wrap;html=1;aspect=fixed;" vertex="1" parent="1">
          <mxGeometry x="509" y="660.25" width="10" height="10" as="geometry" />
        </mxCell>
        <mxCell id="lW7AvcWmKujEDrgc8jRX-12" value="" style="endArrow=none;html=1;" edge="1" parent="1">
          <mxGeometry width="50" height="50" relative="1" as="geometry">
            <mxPoint x="675" y="512.75" as="sourcePoint" />
            <mxPoint x="685" y="492.75" as="targetPoint" />
          </mxGeometry>
        </mxCell>
        <mxCell id="lW7AvcWmKujEDrgc8jRX-13" value="nxt_tccr" style="text;html=1;align=center;verticalAlign=middle;resizable=0;points=[];autosize=1;strokeColor=none;fillColor=none;" vertex="1" parent="1">
          <mxGeometry x="419" y="458" width="60" height="30" as="geometry" />
        </mxCell>
        <mxCell id="lW7AvcWmKujEDrgc8jRX-14" value="&lt;div&gt;31:0&lt;/div&gt;" style="text;html=1;strokeColor=none;fillColor=none;align=center;verticalAlign=middle;whiteSpace=wrap;rounded=0;" vertex="1" parent="1">
          <mxGeometry x="655" y="508.75" width="35" height="25" as="geometry" />
        </mxCell>
        <mxCell id="lW7AvcWmKujEDrgc8jRX-15" value="D" style="text;html=1;align=center;verticalAlign=middle;resizable=0;points=[];autosize=1;strokeColor=none;fillColor=none;" vertex="1" parent="1">
          <mxGeometry x="499" y="480.75" width="20" height="20" as="geometry" />
        </mxCell>
        <mxCell id="lW7AvcWmKujEDrgc8jRX-16" value="Q" style="text;html=1;align=center;verticalAlign=middle;resizable=0;points=[];autosize=1;strokeColor=none;fillColor=none;" vertex="1" parent="1">
          <mxGeometry x="598" y="496.75" width="20" height="20" as="geometry" />
        </mxCell>
        <mxCell id="lW7AvcWmKujEDrgc8jRX-17" value="tccr" style="text;html=1;align=center;verticalAlign=middle;resizable=0;points=[];autosize=1;strokeColor=none;fillColor=none;" vertex="1" parent="1">
          <mxGeometry x="434" y="405" width="40" height="30" as="geometry" />
        </mxCell>
        <mxCell id="lW7AvcWmKujEDrgc8jRX-18" style="edgeStyle=orthogonalEdgeStyle;rounded=0;orthogonalLoop=1;jettySize=auto;html=1;exitX=1;exitY=0.5;exitDx=0;exitDy=0;entryX=0;entryY=0.6;entryDx=0;entryDy=0;entryPerimeter=0;jumpStyle=arc;" edge="1" parent="1" source="FzRiIfpy8C0L5nEiF2S4-3" target="fHg6_ne1IxVIKJh7QP7n-2">
          <mxGeometry relative="1" as="geometry" />
        </mxCell>
        <mxCell id="KS2lWQUbTWkgOvlsbiRV-1" value="nxt_t_irq" style="text;html=1;align=center;verticalAlign=middle;resizable=0;points=[];autosize=1;strokeColor=none;fillColor=none;" vertex="1" parent="1">
          <mxGeometry x="419" y="533.75" width="70" height="30" as="geometry" />
        </mxCell>
        <mxCell id="KS2lWQUbTWkgOvlsbiRV-3" value="t_irq" style="text;html=1;align=center;verticalAlign=middle;resizable=0;points=[];autosize=1;strokeColor=none;fillColor=none;" vertex="1" parent="1">
          <mxGeometry x="790" y="540.75" width="50" height="30" as="geometry" />
        </mxCell>
        <mxCell id="KS2lWQUbTWkgOvlsbiRV-4" value="Edge detector" style="rounded=0;whiteSpace=wrap;html=1;" vertex="1" parent="1">
          <mxGeometry x="197" y="685" width="120" height="60" as="geometry" />
        </mxCell>
        <mxCell id="KS2lWQUbTWkgOvlsbiRV-8" value="pos_edge" style="text;html=1;align=center;verticalAlign=middle;whiteSpace=wrap;rounded=0;" vertex="1" parent="1">
          <mxGeometry x="321.5" y="692" width="50" height="30" as="geometry" />
        </mxCell>
        <mxCell id="KS2lWQUbTWkgOvlsbiRV-9" value="neg_edge" style="text;html=1;align=center;verticalAlign=middle;whiteSpace=wrap;rounded=0;" vertex="1" parent="1">
          <mxGeometry x="394" y="685" width="50" height="30" as="geometry" />
        </mxCell>
        <mxCell id="KS2lWQUbTWkgOvlsbiRV-17" value="" style="endArrow=none;html=1;" edge="1" parent="1">
          <mxGeometry width="50" height="50" relative="1" as="geometry">
            <mxPoint x="352" y="385.5" as="sourcePoint" />
            <mxPoint x="362" y="365.5" as="targetPoint" />
          </mxGeometry>
        </mxCell>
        <mxCell id="KS2lWQUbTWkgOvlsbiRV-18" value="&lt;div&gt;31:0&lt;/div&gt;" style="text;html=1;strokeColor=none;fillColor=none;align=center;verticalAlign=middle;whiteSpace=wrap;rounded=0;" vertex="1" parent="1">
          <mxGeometry x="332" y="381.5" width="35" height="25" as="geometry" />
        </mxCell>
        <mxCell id="KS2lWQUbTWkgOvlsbiRV-19" value="tccmr" style="text;html=1;align=center;verticalAlign=middle;resizable=0;points=[];autosize=1;strokeColor=none;fillColor=none;" vertex="1" parent="1">
          <mxGeometry x="317" y="351.5" width="50" height="30" as="geometry" />
        </mxCell>
        <mxCell id="lW7AvcWmKujEDrgc8jRX-3" style="edgeStyle=orthogonalEdgeStyle;rounded=0;orthogonalLoop=1;jettySize=auto;html=1;exitX=1;exitY=0.5;exitDx=0;exitDy=0;entryX=-0.025;entryY=0.419;entryDx=0;entryDy=0;entryPerimeter=0;" edge="1" parent="1" source="FzRiIfpy8C0L5nEiF2S4-2" target="fHg6_ne1IxVIKJh7QP7n-2">
          <mxGeometry relative="1" as="geometry">
            <Array as="points">
              <mxPoint x="180" y="349" />
              <mxPoint x="180" y="208" />
            </Array>
          </mxGeometry>
        </mxCell>
        <mxCell id="KS2lWQUbTWkgOvlsbiRV-25" style="edgeStyle=orthogonalEdgeStyle;rounded=0;orthogonalLoop=1;jettySize=auto;html=1;exitX=1;exitY=0.5;exitDx=0;exitDy=0;entryX=0.003;entryY=0.892;entryDx=0;entryDy=0;entryPerimeter=0;" edge="1" parent="1" source="1a2yClQbiCNtIVJOz1LQ-1">
          <mxGeometry relative="1" as="geometry">
            <mxPoint x="285.3570000000002" y="655.3199999999999" as="targetPoint" />
          </mxGeometry>
        </mxCell>
        <mxCell id="KS2lWQUbTWkgOvlsbiRV-28" style="edgeStyle=orthogonalEdgeStyle;rounded=0;orthogonalLoop=1;jettySize=auto;html=1;exitX=1;exitY=0.25;exitDx=0;exitDy=0;entryX=0.389;entryY=1.005;entryDx=0;entryDy=0;entryPerimeter=0;" edge="1" parent="1" source="KS2lWQUbTWkgOvlsbiRV-4" target="lW7AvcWmKujEDrgc8jRX-4">
          <mxGeometry relative="1" as="geometry" />
        </mxCell>
        <mxCell id="KS2lWQUbTWkgOvlsbiRV-29" style="edgeStyle=orthogonalEdgeStyle;rounded=0;orthogonalLoop=1;jettySize=auto;html=1;exitX=1;exitY=0.75;exitDx=0;exitDy=0;entryX=0.853;entryY=0.999;entryDx=0;entryDy=0;entryPerimeter=0;" edge="1" parent="1" source="KS2lWQUbTWkgOvlsbiRV-4" target="lW7AvcWmKujEDrgc8jRX-4">
          <mxGeometry relative="1" as="geometry" />
        </mxCell>
        <mxCell id="KS2lWQUbTWkgOvlsbiRV-51" style="edgeStyle=orthogonalEdgeStyle;rounded=0;orthogonalLoop=1;jettySize=auto;html=1;exitX=1;exitY=0.5;exitDx=0;exitDy=0;entryX=0;entryY=0.5;entryDx=0;entryDy=0;" edge="1" parent="1" source="KS2lWQUbTWkgOvlsbiRV-32" target="3TzUZ2fMZYBfheMCulta-6">
          <mxGeometry relative="1" as="geometry">
            <Array as="points">
              <mxPoint x="450" y="908" />
              <mxPoint x="450" y="1025" />
              <mxPoint x="770" y="1025" />
              <mxPoint x="770" y="815" />
            </Array>
          </mxGeometry>
        </mxCell>
        <mxCell id="KS2lWQUbTWkgOvlsbiRV-32" value="register logic" style="rounded=0;whiteSpace=wrap;html=1;" vertex="1" parent="1">
          <mxGeometry x="285" y="803" width="119" height="210" as="geometry" />
        </mxCell>
        <mxCell id="KS2lWQUbTWkgOvlsbiRV-33" value="" style="endArrow=classic;html=1;entryX=0;entryY=0.182;entryDx=0;entryDy=0;entryPerimeter=0;" edge="1" parent="1" target="KS2lWQUbTWkgOvlsbiRV-37">
          <mxGeometry width="50" height="50" relative="1" as="geometry">
            <mxPoint x="405" y="839" as="sourcePoint" />
            <mxPoint x="374" y="839" as="targetPoint" />
          </mxGeometry>
        </mxCell>
        <mxCell id="KS2lWQUbTWkgOvlsbiRV-36" style="edgeStyle=orthogonalEdgeStyle;rounded=0;orthogonalLoop=1;jettySize=auto;html=1;exitX=1;exitY=0.25;exitDx=0;exitDy=0;entryX=0.5;entryY=0;entryDx=0;entryDy=0;" edge="1" parent="1">
          <mxGeometry relative="1" as="geometry">
            <Array as="points">
              <mxPoint x="709" y="853" />
              <mxPoint x="709" y="777" />
              <mxPoint x="344" y="777" />
            </Array>
            <mxPoint x="617" y="853.25" as="sourcePoint" />
            <mxPoint x="343.5" y="803" as="targetPoint" />
          </mxGeometry>
        </mxCell>
        <mxCell id="KS2lWQUbTWkgOvlsbiRV-53" style="edgeStyle=orthogonalEdgeStyle;rounded=0;orthogonalLoop=1;jettySize=auto;html=1;exitX=1;exitY=0.25;exitDx=0;exitDy=0;entryX=0;entryY=0.5;entryDx=0;entryDy=0;" edge="1" parent="1" source="KS2lWQUbTWkgOvlsbiRV-37" target="3TzUZ2fMZYBfheMCulta-3">
          <mxGeometry relative="1" as="geometry">
            <mxPoint x="660" y="845.0000000000001" as="targetPoint" />
          </mxGeometry>
        </mxCell>
        <mxCell id="KS2lWQUbTWkgOvlsbiRV-37" value="" style="rounded=0;whiteSpace=wrap;html=1;" vertex="1" parent="1">
          <mxGeometry x="499" y="800.75" width="119" height="210" as="geometry" />
        </mxCell>
        <mxCell id="KS2lWQUbTWkgOvlsbiRV-38" value="" style="triangle;whiteSpace=wrap;html=1;" vertex="1" parent="1">
          <mxGeometry x="499" y="1000.25" width="10" height="10" as="geometry" />
        </mxCell>
        <mxCell id="KS2lWQUbTWkgOvlsbiRV-39" value="" style="ellipse;whiteSpace=wrap;html=1;aspect=fixed;" vertex="1" parent="1">
          <mxGeometry x="509" y="1010.25" width="10" height="10" as="geometry" />
        </mxCell>
        <mxCell id="KS2lWQUbTWkgOvlsbiRV-41" value="nxt_t_out" style="text;html=1;align=center;verticalAlign=middle;resizable=0;points=[];autosize=1;strokeColor=none;fillColor=none;" vertex="1" parent="1">
          <mxGeometry x="414" y="808" width="70" height="30" as="geometry" />
        </mxCell>
        <mxCell id="KS2lWQUbTWkgOvlsbiRV-43" value="D" style="text;html=1;align=center;verticalAlign=middle;resizable=0;points=[];autosize=1;strokeColor=none;fillColor=none;" vertex="1" parent="1">
          <mxGeometry x="499" y="830.75" width="20" height="20" as="geometry" />
        </mxCell>
        <mxCell id="KS2lWQUbTWkgOvlsbiRV-44" value="Q" style="text;html=1;align=center;verticalAlign=middle;resizable=0;points=[];autosize=1;strokeColor=none;fillColor=none;" vertex="1" parent="1">
          <mxGeometry x="598" y="846.75" width="20" height="20" as="geometry" />
        </mxCell>
        <mxCell id="KS2lWQUbTWkgOvlsbiRV-45" value="t_out" style="text;html=1;align=center;verticalAlign=middle;resizable=0;points=[];autosize=1;strokeColor=none;fillColor=none;" vertex="1" parent="1">
          <mxGeometry x="429" y="755" width="50" height="30" as="geometry" />
        </mxCell>
        <mxCell id="KS2lWQUbTWkgOvlsbiRV-50" style="edgeStyle=orthogonalEdgeStyle;rounded=0;orthogonalLoop=1;jettySize=auto;html=1;exitX=1;exitY=0.5;exitDx=0;exitDy=0;entryX=0.018;entryY=0.412;entryDx=0;entryDy=0;entryPerimeter=0;" edge="1" parent="1" source="FzRiIfpy8C0L5nEiF2S4-3" target="lW7AvcWmKujEDrgc8jRX-4">
          <mxGeometry relative="1" as="geometry" />
        </mxCell>
        <mxCell id="KS2lWQUbTWkgOvlsbiRV-56" style="edgeStyle=orthogonalEdgeStyle;rounded=0;orthogonalLoop=1;jettySize=auto;html=1;exitX=1;exitY=0.5;exitDx=0;exitDy=0;entryX=0;entryY=0.25;entryDx=0;entryDy=0;jumpStyle=arc;jumpSize=7;" edge="1" parent="1" source="KS2lWQUbTWkgOvlsbiRV-54" target="KS2lWQUbTWkgOvlsbiRV-32">
          <mxGeometry relative="1" as="geometry">
            <Array as="points">
              <mxPoint x="160" y="574" />
              <mxPoint x="160" y="856" />
            </Array>
          </mxGeometry>
        </mxCell>
        <mxCell id="KS2lWQUbTWkgOvlsbiRV-54" value="tcr" style="text;html=1;strokeColor=none;fillColor=none;align=center;verticalAlign=middle;whiteSpace=wrap;rounded=0;" vertex="1" parent="1">
          <mxGeometry x="55.5" y="563.75" width="29" height="20" as="geometry" />
        </mxCell>
        <mxCell id="KS2lWQUbTWkgOvlsbiRV-55" style="edgeStyle=orthogonalEdgeStyle;rounded=0;orthogonalLoop=1;jettySize=auto;html=1;exitX=1;exitY=0.5;exitDx=0;exitDy=0;entryX=-0.002;entryY=0.573;entryDx=0;entryDy=0;entryPerimeter=0;" edge="1" parent="1" source="KS2lWQUbTWkgOvlsbiRV-54" target="lW7AvcWmKujEDrgc8jRX-4">
          <mxGeometry relative="1" as="geometry" />
        </mxCell>
        <mxCell id="KS2lWQUbTWkgOvlsbiRV-58" value="" style="endArrow=none;html=1;" edge="1" parent="1">
          <mxGeometry width="50" height="50" relative="1" as="geometry">
            <mxPoint x="259.5" y="930" as="sourcePoint" />
            <mxPoint x="269.5" y="910" as="targetPoint" />
          </mxGeometry>
        </mxCell>
        <mxCell id="KS2lWQUbTWkgOvlsbiRV-59" value="&lt;div&gt;31:0&lt;/div&gt;" style="text;html=1;strokeColor=none;fillColor=none;align=center;verticalAlign=middle;whiteSpace=wrap;rounded=0;" vertex="1" parent="1">
          <mxGeometry x="239.5" y="926" width="35" height="25" as="geometry" />
        </mxCell>
        <mxCell id="KS2lWQUbTWkgOvlsbiRV-61" value="tccmr" style="text;html=1;align=center;verticalAlign=middle;whiteSpace=wrap;rounded=0;" vertex="1" parent="1">
          <mxGeometry x="190" y="905" width="40" height="30" as="geometry" />
        </mxCell>
        <mxCell id="KS2lWQUbTWkgOvlsbiRV-62" style="edgeStyle=orthogonalEdgeStyle;rounded=0;orthogonalLoop=1;jettySize=auto;html=1;exitX=1;exitY=0.5;exitDx=0;exitDy=0;entryX=0.006;entryY=0.559;entryDx=0;entryDy=0;entryPerimeter=0;" edge="1" parent="1" source="KS2lWQUbTWkgOvlsbiRV-61" target="KS2lWQUbTWkgOvlsbiRV-32">
          <mxGeometry relative="1" as="geometry" />
        </mxCell>
        <mxCell id="KS2lWQUbTWkgOvlsbiRV-63" style="edgeStyle=orthogonalEdgeStyle;rounded=0;orthogonalLoop=1;jettySize=auto;html=1;exitX=1;exitY=0.5;exitDx=0;exitDy=0;entryX=0.004;entryY=0.419;entryDx=0;entryDy=0;entryPerimeter=0;jumpStyle=arc;" edge="1" parent="1" source="1a2yClQbiCNtIVJOz1LQ-1" target="KS2lWQUbTWkgOvlsbiRV-32">
          <mxGeometry relative="1" as="geometry">
            <Array as="points">
              <mxPoint x="120" y="655" />
              <mxPoint x="120" y="891" />
            </Array>
          </mxGeometry>
        </mxCell>
        <mxCell id="1pQ9QoYvtv841KNahhwR-1" value="" style="endArrow=none;html=1;" edge="1" parent="1">
          <mxGeometry width="50" height="50" relative="1" as="geometry">
            <mxPoint x="160" y="548.25" as="sourcePoint" />
            <mxPoint x="170" y="528.25" as="targetPoint" />
          </mxGeometry>
        </mxCell>
        <mxCell id="1pQ9QoYvtv841KNahhwR-2" value="&lt;div&gt;19:0&lt;/div&gt;" style="text;html=1;strokeColor=none;fillColor=none;align=center;verticalAlign=middle;whiteSpace=wrap;rounded=0;" vertex="1" parent="1">
          <mxGeometry x="140" y="544.25" width="35" height="25" as="geometry" />
        </mxCell>
        <mxCell id="1pQ9QoYvtv841KNahhwR-3" value="" style="endArrow=none;html=1;" edge="1" parent="1">
          <mxGeometry width="50" height="50" relative="1" as="geometry">
            <mxPoint x="240" y="664" as="sourcePoint" />
            <mxPoint x="250" y="644" as="targetPoint" />
          </mxGeometry>
        </mxCell>
        <mxCell id="1pQ9QoYvtv841KNahhwR-4" value="&lt;div&gt;31:0&lt;/div&gt;" style="text;html=1;strokeColor=none;fillColor=none;align=center;verticalAlign=middle;whiteSpace=wrap;rounded=0;" vertex="1" parent="1">
          <mxGeometry x="220" y="660" width="35" height="25" as="geometry" />
        </mxCell>
        <mxCell id="1pQ9QoYvtv841KNahhwR-5" value="" style="endArrow=none;html=1;" edge="1" parent="1">
          <mxGeometry width="50" height="50" relative="1" as="geometry">
            <mxPoint x="240" y="620" as="sourcePoint" />
            <mxPoint x="250" y="600" as="targetPoint" />
          </mxGeometry>
        </mxCell>
        <mxCell id="1pQ9QoYvtv841KNahhwR-6" value="&lt;div&gt;31:0&lt;/div&gt;" style="text;html=1;strokeColor=none;fillColor=none;align=center;verticalAlign=middle;whiteSpace=wrap;rounded=0;" vertex="1" parent="1">
          <mxGeometry x="220" y="616" width="35" height="25" as="geometry" />
        </mxCell>
        <mxCell id="1pQ9QoYvtv841KNahhwR-7" value="" style="endArrow=none;html=1;" edge="1" parent="1">
          <mxGeometry width="50" height="50" relative="1" as="geometry">
            <mxPoint x="250" y="866.75" as="sourcePoint" />
            <mxPoint x="260" y="846.75" as="targetPoint" />
          </mxGeometry>
        </mxCell>
        <mxCell id="1pQ9QoYvtv841KNahhwR-8" value="&lt;div&gt;31:0&lt;/div&gt;" style="text;html=1;strokeColor=none;fillColor=none;align=center;verticalAlign=middle;whiteSpace=wrap;rounded=0;" vertex="1" parent="1">
          <mxGeometry x="230" y="862.75" width="35" height="25" as="geometry" />
        </mxCell>
        <mxCell id="1pQ9QoYvtv841KNahhwR-12" value="" style="endArrow=none;html=1;" edge="1" parent="1">
          <mxGeometry width="50" height="50" relative="1" as="geometry">
            <mxPoint x="240" y="583.75" as="sourcePoint" />
            <mxPoint x="250" y="563.75" as="targetPoint" />
          </mxGeometry>
        </mxCell>
        <mxCell id="1pQ9QoYvtv841KNahhwR-13" value="&lt;div&gt;31:0&lt;/div&gt;" style="text;html=1;strokeColor=none;fillColor=none;align=center;verticalAlign=middle;whiteSpace=wrap;rounded=0;" vertex="1" parent="1">
          <mxGeometry x="220" y="579.75" width="35" height="25" as="geometry" />
        </mxCell>
        <mxCell id="1pQ9QoYvtv841KNahhwR-16" value="" style="endArrow=none;html=1;" edge="1" parent="1">
          <mxGeometry width="50" height="50" relative="1" as="geometry">
            <mxPoint x="259.5" y="216.5" as="sourcePoint" />
            <mxPoint x="269.5" y="196.5" as="targetPoint" />
          </mxGeometry>
        </mxCell>
        <mxCell id="1pQ9QoYvtv841KNahhwR-17" value="&lt;div&gt;31:0&lt;/div&gt;" style="text;html=1;strokeColor=none;fillColor=none;align=center;verticalAlign=middle;whiteSpace=wrap;rounded=0;" vertex="1" parent="1">
          <mxGeometry x="239.5" y="212.5" width="35" height="25" as="geometry" />
        </mxCell>
        <mxCell id="1pQ9QoYvtv841KNahhwR-18" value="" style="endArrow=none;html=1;" edge="1" parent="1">
          <mxGeometry width="50" height="50" relative="1" as="geometry">
            <mxPoint x="259.5" y="459.75" as="sourcePoint" />
            <mxPoint x="269.5" y="439.75" as="targetPoint" />
          </mxGeometry>
        </mxCell>
        <mxCell id="1pQ9QoYvtv841KNahhwR-19" value="&lt;div&gt;31:0&lt;/div&gt;" style="text;html=1;strokeColor=none;fillColor=none;align=center;verticalAlign=middle;whiteSpace=wrap;rounded=0;" vertex="1" parent="1">
          <mxGeometry x="239.5" y="455.75" width="35" height="25" as="geometry" />
        </mxCell>
        <mxCell id="1pQ9QoYvtv841KNahhwR-20" value="" style="endArrow=none;html=1;" edge="1" parent="1">
          <mxGeometry width="50" height="50" relative="1" as="geometry">
            <mxPoint x="259.5" y="183" as="sourcePoint" />
            <mxPoint x="269.5" y="163" as="targetPoint" />
          </mxGeometry>
        </mxCell>
        <mxCell id="1pQ9QoYvtv841KNahhwR-21" value="&lt;div&gt;31:0&lt;/div&gt;" style="text;html=1;strokeColor=none;fillColor=none;align=center;verticalAlign=middle;whiteSpace=wrap;rounded=0;" vertex="1" parent="1">
          <mxGeometry x="239.5" y="179" width="35" height="25" as="geometry" />
        </mxCell>
        <mxCell id="1pQ9QoYvtv841KNahhwR-22" value="" style="endArrow=none;html=1;" edge="1" parent="1">
          <mxGeometry width="50" height="50" relative="1" as="geometry">
            <mxPoint x="230" y="486.75" as="sourcePoint" />
            <mxPoint x="240" y="466.75" as="targetPoint" />
          </mxGeometry>
        </mxCell>
        <mxCell id="1pQ9QoYvtv841KNahhwR-23" value="&lt;div&gt;31:0&lt;/div&gt;" style="text;html=1;strokeColor=none;fillColor=none;align=center;verticalAlign=middle;whiteSpace=wrap;rounded=0;" vertex="1" parent="1">
          <mxGeometry x="210" y="482.75" width="35" height="25" as="geometry" />
        </mxCell>
        <mxCell id="1pQ9QoYvtv841KNahhwR-24" value="" style="endArrow=none;html=1;" edge="1" parent="1">
          <mxGeometry width="50" height="50" relative="1" as="geometry">
            <mxPoint x="770" y="306.25" as="sourcePoint" />
            <mxPoint x="780" y="286.25" as="targetPoint" />
          </mxGeometry>
        </mxCell>
        <mxCell id="1pQ9QoYvtv841KNahhwR-25" value="&lt;div&gt;31:0&lt;/div&gt;" style="text;html=1;strokeColor=none;fillColor=none;align=center;verticalAlign=middle;whiteSpace=wrap;rounded=0;" vertex="1" parent="1">
          <mxGeometry x="750" y="302.25" width="35" height="25" as="geometry" />
        </mxCell>
        <mxCell id="1pQ9QoYvtv841KNahhwR-26" value="" style="endArrow=none;html=1;" edge="1" parent="1">
          <mxGeometry width="50" height="50" relative="1" as="geometry">
            <mxPoint x="775" y="260.12" as="sourcePoint" />
            <mxPoint x="785" y="240.12" as="targetPoint" />
          </mxGeometry>
        </mxCell>
        <mxCell id="1pQ9QoYvtv841KNahhwR-27" value="&lt;div&gt;31:0&lt;/div&gt;" style="text;html=1;strokeColor=none;fillColor=none;align=center;verticalAlign=middle;whiteSpace=wrap;rounded=0;" vertex="1" parent="1">
          <mxGeometry x="755" y="256.12" width="35" height="25" as="geometry" />
        </mxCell>
        <mxCell id="rjctPu9E55A4MpD8Qfqb-1" value="&lt;font style=&quot;font-size: 20px;&quot;&gt;Input Capture&lt;br&gt;&lt;/font&gt;" style="text;html=1;align=center;verticalAlign=middle;whiteSpace=wrap;rounded=0;" vertex="1" parent="1">
          <mxGeometry x="449" y="725" width="171" height="30" as="geometry" />
        </mxCell>
        <mxCell id="rjctPu9E55A4MpD8Qfqb-2" value="&lt;font style=&quot;font-size: 20px;&quot;&gt;Output Compare&lt;br&gt;&lt;/font&gt;" style="text;html=1;align=center;verticalAlign=middle;whiteSpace=wrap;rounded=0;" vertex="1" parent="1">
          <mxGeometry x="459" y="1025" width="171" height="30" as="geometry" />
        </mxCell>
        <mxCell id="rjctPu9E55A4MpD8Qfqb-3" value="tcr" style="text;html=1;strokeColor=none;fillColor=none;align=center;verticalAlign=middle;whiteSpace=wrap;rounded=0;" vertex="1" parent="1">
          <mxGeometry x="216" y="838" width="29" height="20" as="geometry" />
        </mxCell>
        <mxCell id="rjctPu9E55A4MpD8Qfqb-4" value="tarr" style="text;html=1;strokeColor=none;fillColor=none;align=center;verticalAlign=middle;whiteSpace=wrap;rounded=0;" vertex="1" parent="1">
          <mxGeometry x="201" y="867.75" width="29" height="20" as="geometry" />
        </mxCell>
        <mxCell id="rjctPu9E55A4MpD8Qfqb-5" value="&lt;font style=&quot;font-size: 32px;&quot;&gt;Capture-Compare Channel&lt;br&gt;&lt;/font&gt;" style="text;html=1;align=center;verticalAlign=middle;whiteSpace=wrap;rounded=0;" vertex="1" parent="1">
          <mxGeometry x="95" y="35" width="285" height="65" as="geometry" />
        </mxCell>
      </root>
    </mxGraphModel>
  </diagram>
</mxfile>
